<?xml version="1.0" encoding="UTF-8" standalone="no"?><svg xmlns="http://www.w3.org/2000/svg" xmlns:xlink="http://www.w3.org/1999/xlink" contentScriptType="application/ecmascript" contentStyleType="text/css" height="320px" preserveAspectRatio="none" style="width:570px;height:320px;" version="1.1" viewBox="0 0 570 320" width="570px" zoomAndPan="magnify"><defs><filter height="300%" id="f1kngeakd3womb" width="300%" x="-1" y="-1"><feGaussianBlur result="blurOut" stdDeviation="2.0"/><feColorMatrix in="blurOut" result="blurOut2" type="matrix" values="0 0 0 0 0 0 0 0 0 0 0 0 0 0 0 0 0 0 .4 0"/><feOffset dx="4.0" dy="4.0" in="blurOut2" result="blurOut3"/><feBlend in="SourceGraphic" in2="blurOut3" mode="normal"/></filter></defs><g><rect fill="#FFFFFF" filter="url(#f1kngeakd3womb)" height="59.9316" style="stroke: #A80036; stroke-width: 1.0;" width="10" x="178.5" y="85.1094"/><rect fill="#FFFFFF" filter="url(#f1kngeakd3womb)" height="87.9316" style="stroke: #A80036; stroke-width: 1.0;" width="10" x="337" y="174.3516"/><rect fill="#FFFFFF" filter="url(#f1kngeakd3womb)" height="29.3105" style="stroke: #A80036; stroke-width: 1.0;" width="10" x="499" y="203.6621"/><line style="stroke: #A80036; stroke-width: 1.0; stroke-dasharray: 5.0,5.0;" x1="44" x2="44" y1="38.4883" y2="280.2832"/><line style="stroke: #A80036; stroke-width: 1.0; stroke-dasharray: 5.0,5.0;" x1="183.5" x2="183.5" y1="38.4883" y2="280.2832"/><line style="stroke: #A80036; stroke-width: 1.0; stroke-dasharray: 5.0,5.0;" x1="341.5" x2="341.5" y1="38.4883" y2="280.2832"/><line style="stroke: #A80036; stroke-width: 1.0; stroke-dasharray: 5.0,5.0;" x1="503.5" x2="503.5" y1="38.4883" y2="280.2832"/><rect fill="#FEFECE" filter="url(#f1kngeakd3womb)" height="30.4883" style="stroke: #A80036; stroke-width: 1.5;" width="69" x="8" y="3"/><text fill="#000000" font-family="sans-serif" font-size="14" lengthAdjust="spacingAndGlyphs" textLength="55" x="15" y="23.5352">Browser</text><rect fill="#FEFECE" filter="url(#f1kngeakd3womb)" height="30.4883" style="stroke: #A80036; stroke-width: 1.5;" width="69" x="8" y="279.2832"/><text fill="#000000" font-family="sans-serif" font-size="14" lengthAdjust="spacingAndGlyphs" textLength="55" x="15" y="299.8184">Browser</text><rect fill="#FEFECE" filter="url(#f1kngeakd3womb)" height="30.4883" style="stroke: #A80036; stroke-width: 1.5;" width="108" x="127.5" y="3"/><text fill="#000000" font-family="sans-serif" font-size="14" lengthAdjust="spacingAndGlyphs" textLength="94" x="134.5" y="23.5352">AlgoliaSearch</text><rect fill="#FEFECE" filter="url(#f1kngeakd3womb)" height="30.4883" style="stroke: #A80036; stroke-width: 1.5;" width="108" x="127.5" y="279.2832"/><text fill="#000000" font-family="sans-serif" font-size="14" lengthAdjust="spacingAndGlyphs" textLength="94" x="134.5" y="299.8184">AlgoliaSearch</text><rect fill="#FEFECE" filter="url(#f1kngeakd3womb)" height="30.4883" style="stroke: #A80036; stroke-width: 1.5;" width="181" x="249.5" y="3"/><text fill="#000000" font-family="sans-serif" font-size="14" lengthAdjust="spacingAndGlyphs" textLength="167" x="256.5" y="23.5352">photos.hollowverse.com</text><rect fill="#FEFECE" filter="url(#f1kngeakd3womb)" height="30.4883" style="stroke: #A80036; stroke-width: 1.5;" width="181" x="249.5" y="279.2832"/><text fill="#000000" font-family="sans-serif" font-size="14" lengthAdjust="spacingAndGlyphs" textLength="167" x="256.5" y="299.8184">photos.hollowverse.com</text><rect fill="#FEFECE" filter="url(#f1kngeakd3womb)" height="30.4883" style="stroke: #A80036; stroke-width: 1.5;" width="115" x="444.5" y="3"/><text fill="#000000" font-family="sans-serif" font-size="14" lengthAdjust="spacingAndGlyphs" textLength="101" x="451.5" y="23.5352">AWS S3 bucket</text><rect fill="#FEFECE" filter="url(#f1kngeakd3womb)" height="30.4883" style="stroke: #A80036; stroke-width: 1.5;" width="115" x="444.5" y="279.2832"/><text fill="#000000" font-family="sans-serif" font-size="14" lengthAdjust="spacingAndGlyphs" textLength="101" x="451.5" y="299.8184">AWS S3 bucket</text><rect fill="#FFFFFF" filter="url(#f1kngeakd3womb)" height="59.9316" style="stroke: #A80036; stroke-width: 1.0;" width="10" x="178.5" y="85.1094"/><rect fill="#FFFFFF" filter="url(#f1kngeakd3womb)" height="87.9316" style="stroke: #A80036; stroke-width: 1.0;" width="10" x="337" y="174.3516"/><rect fill="#FFFFFF" filter="url(#f1kngeakd3womb)" height="29.3105" style="stroke: #A80036; stroke-width: 1.0;" width="10" x="499" y="203.6621"/><polygon fill="#A80036" points="166.5,81.1094,176.5,85.1094,166.5,89.1094,170.5,85.1094" style="stroke: #A80036; stroke-width: 1.0;"/><line style="stroke: #A80036; stroke-width: 1.0;" x1="44.5" x2="172.5" y1="85.1094" y2="85.1094"/><text fill="#000000" font-family="sans-serif" font-size="13" lengthAdjust="spacingAndGlyphs" textLength="97" x="51.5" y="65.0566">Request results</text><text fill="#000000" font-family="sans-serif" font-size="13" lengthAdjust="spacingAndGlyphs" textLength="94" x="51.5" y="80.3672">for user search</text><polygon fill="#A80036" points="55.5,141.041,45.5,145.041,55.5,149.041,51.5,145.041" style="stroke: #A80036; stroke-width: 1.0;"/><line style="stroke: #A80036; stroke-width: 1.0;" x1="49.5" x2="182.5" y1="145.041" y2="145.041"/><text fill="#000000" font-family="sans-serif" font-size="13" lengthAdjust="spacingAndGlyphs" textLength="86" x="61.5" y="109.6777">Return search</text><text fill="#000000" font-family="sans-serif" font-size="13" lengthAdjust="spacingAndGlyphs" textLength="110" x="61.5" y="124.9883">results (including</text><text fill="#000000" font-family="sans-serif" font-size="13" lengthAdjust="spacingAndGlyphs" textLength="76" x="61.5" y="140.2988">photo URLs)</text><polygon fill="#A80036" points="325,170.3516,335,174.3516,325,178.3516,329,174.3516" style="stroke: #A80036; stroke-width: 1.0;"/><line style="stroke: #A80036; stroke-width: 1.0;" x1="44.5" x2="331" y1="174.3516" y2="174.3516"/><text fill="#000000" font-family="sans-serif" font-size="13" lengthAdjust="spacingAndGlyphs" textLength="91" x="51.5" y="169.6094">Request photo</text><polygon fill="#A80036" points="487,199.6621,497,203.6621,487,207.6621,491,203.6621" style="stroke: #A80036; stroke-width: 1.0;"/><line style="stroke: #A80036; stroke-width: 1.0;" x1="347" x2="493" y1="203.6621" y2="203.6621"/><text fill="#000000" font-family="sans-serif" font-size="13" lengthAdjust="spacingAndGlyphs" textLength="91" x="354" y="198.9199">Request photo</text><polygon fill="#A80036" points="358,228.9727,348,232.9727,358,236.9727,354,232.9727" style="stroke: #A80036; stroke-width: 1.0;"/><line style="stroke: #A80036; stroke-width: 1.0;" x1="352" x2="503" y1="232.9727" y2="232.9727"/><text fill="#000000" font-family="sans-serif" font-size="13" lengthAdjust="spacingAndGlyphs" textLength="82" x="364" y="228.2305">Return photo</text><polygon fill="#A80036" points="55.5,258.2832,45.5,262.2832,55.5,266.2832,51.5,262.2832" style="stroke: #A80036; stroke-width: 1.0;"/><line style="stroke: #A80036; stroke-width: 1.0;" x1="49.5" x2="341" y1="262.2832" y2="262.2832"/><text fill="#000000" font-family="sans-serif" font-size="13" lengthAdjust="spacingAndGlyphs" textLength="82" x="61.5" y="257.541">Return photo</text></g></svg>
