<?xml version="1.0" encoding="UTF-8" standalone="no"?><svg xmlns="http://www.w3.org/2000/svg" xmlns:xlink="http://www.w3.org/1999/xlink" contentScriptType="application/ecmascript" contentStyleType="text/css" height="410px" preserveAspectRatio="none" style="width:734px;height:410px;" version="1.1" viewBox="0 0 734 410" width="734px" zoomAndPan="magnify"><defs><filter height="300%" id="f1o1mt7dfdqe4l" width="300%" x="-1" y="-1"><feGaussianBlur result="blurOut" stdDeviation="2.0"/><feColorMatrix in="blurOut" result="blurOut2" type="matrix" values="0 0 0 0 0 0 0 0 0 0 0 0 0 0 0 0 0 0 .4 0"/><feOffset dx="4.0" dy="4.0" in="blurOut2" result="blurOut3"/><feBlend in="SourceGraphic" in2="blurOut3" mode="normal"/></filter></defs><g><rect fill="#FFFFFF" filter="url(#f1o1mt7dfdqe4l)" height="303.0371" style="stroke: #A80036; stroke-width: 1.0;" width="10" x="39.5" y="48.4883"/><rect fill="#FFFFFF" filter="url(#f1o1mt7dfdqe4l)" height="149.1738" style="stroke: #A80036; stroke-width: 1.0;" width="10" x="209.5" y="85.1094"/><rect fill="#FFFFFF" filter="url(#f1o1mt7dfdqe4l)" height="87.9316" style="stroke: #A80036; stroke-width: 1.0;" width="10" x="391" y="263.5938"/><rect fill="#FFFFFF" filter="url(#f1o1mt7dfdqe4l)" height="44.6211" style="stroke: #A80036; stroke-width: 1.0;" width="10" x="543.5" y="129.7305"/><rect fill="#FFFFFF" filter="url(#f1o1mt7dfdqe4l)" height="29.3105" style="stroke: #A80036; stroke-width: 1.0;" width="10" x="663" y="292.9043"/><line style="stroke: #A80036; stroke-width: 1.0; stroke-dasharray: 5.0,5.0;" x1="44" x2="44" y1="38.4883" y2="369.5254"/><line style="stroke: #A80036; stroke-width: 1.0; stroke-dasharray: 5.0,5.0;" x1="214.5" x2="214.5" y1="38.4883" y2="369.5254"/><line style="stroke: #A80036; stroke-width: 1.0; stroke-dasharray: 5.0,5.0;" x1="395.5" x2="395.5" y1="38.4883" y2="369.5254"/><line style="stroke: #A80036; stroke-width: 1.0; stroke-dasharray: 5.0,5.0;" x1="548.5" x2="548.5" y1="38.4883" y2="369.5254"/><line style="stroke: #A80036; stroke-width: 1.0; stroke-dasharray: 5.0,5.0;" x1="667.5" x2="667.5" y1="38.4883" y2="369.5254"/><rect fill="#FEFECE" filter="url(#f1o1mt7dfdqe4l)" height="30.4883" style="stroke: #A80036; stroke-width: 1.5;" width="69" x="8" y="3"/><text fill="#000000" font-family="sans-serif" font-size="14" lengthAdjust="spacingAndGlyphs" textLength="55" x="15" y="23.5352">Browser</text><rect fill="#FEFECE" filter="url(#f1o1mt7dfdqe4l)" height="30.4883" style="stroke: #A80036; stroke-width: 1.5;" width="69" x="8" y="368.5254"/><text fill="#000000" font-family="sans-serif" font-size="14" lengthAdjust="spacingAndGlyphs" textLength="55" x="15" y="389.0605">Browser</text><rect fill="#FEFECE" filter="url(#f1o1mt7dfdqe4l)" height="30.4883" style="stroke: #A80036; stroke-width: 1.5;" width="154" x="135.5" y="3"/><text fill="#000000" font-family="sans-serif" font-size="14" lengthAdjust="spacingAndGlyphs" textLength="140" x="142.5" y="23.5352">api.hollowverse.com</text><rect fill="#FEFECE" filter="url(#f1o1mt7dfdqe4l)" height="30.4883" style="stroke: #A80036; stroke-width: 1.5;" width="154" x="135.5" y="368.5254"/><text fill="#000000" font-family="sans-serif" font-size="14" lengthAdjust="spacingAndGlyphs" textLength="140" x="142.5" y="389.0605">api.hollowverse.com</text><rect fill="#FEFECE" filter="url(#f1o1mt7dfdqe4l)" height="30.4883" style="stroke: #A80036; stroke-width: 1.5;" width="181" x="303.5" y="3"/><text fill="#000000" font-family="sans-serif" font-size="14" lengthAdjust="spacingAndGlyphs" textLength="167" x="310.5" y="23.5352">photos.hollowverse.com</text><rect fill="#FEFECE" filter="url(#f1o1mt7dfdqe4l)" height="30.4883" style="stroke: #A80036; stroke-width: 1.5;" width="181" x="303.5" y="368.5254"/><text fill="#000000" font-family="sans-serif" font-size="14" lengthAdjust="spacingAndGlyphs" textLength="167" x="310.5" y="389.0605">photos.hollowverse.com</text><rect fill="#FEFECE" filter="url(#f1o1mt7dfdqe4l)" height="30.4883" style="stroke: #A80036; stroke-width: 1.5;" width="96" x="498.5" y="3"/><text fill="#000000" font-family="sans-serif" font-size="14" lengthAdjust="spacingAndGlyphs" textLength="82" x="505.5" y="23.5352">AWS Aurora</text><rect fill="#FEFECE" filter="url(#f1o1mt7dfdqe4l)" height="30.4883" style="stroke: #A80036; stroke-width: 1.5;" width="96" x="498.5" y="368.5254"/><text fill="#000000" font-family="sans-serif" font-size="14" lengthAdjust="spacingAndGlyphs" textLength="82" x="505.5" y="389.0605">AWS Aurora</text><rect fill="#FEFECE" filter="url(#f1o1mt7dfdqe4l)" height="30.4883" style="stroke: #A80036; stroke-width: 1.5;" width="115" x="608.5" y="3"/><text fill="#000000" font-family="sans-serif" font-size="14" lengthAdjust="spacingAndGlyphs" textLength="101" x="615.5" y="23.5352">AWS S3 bucket</text><rect fill="#FEFECE" filter="url(#f1o1mt7dfdqe4l)" height="30.4883" style="stroke: #A80036; stroke-width: 1.5;" width="115" x="608.5" y="368.5254"/><text fill="#000000" font-family="sans-serif" font-size="14" lengthAdjust="spacingAndGlyphs" textLength="101" x="615.5" y="389.0605">AWS S3 bucket</text><rect fill="#FFFFFF" filter="url(#f1o1mt7dfdqe4l)" height="303.0371" style="stroke: #A80036; stroke-width: 1.0;" width="10" x="39.5" y="48.4883"/><rect fill="#FFFFFF" filter="url(#f1o1mt7dfdqe4l)" height="149.1738" style="stroke: #A80036; stroke-width: 1.0;" width="10" x="209.5" y="85.1094"/><rect fill="#FFFFFF" filter="url(#f1o1mt7dfdqe4l)" height="87.9316" style="stroke: #A80036; stroke-width: 1.0;" width="10" x="391" y="263.5938"/><rect fill="#FFFFFF" filter="url(#f1o1mt7dfdqe4l)" height="44.6211" style="stroke: #A80036; stroke-width: 1.0;" width="10" x="543.5" y="129.7305"/><rect fill="#FFFFFF" filter="url(#f1o1mt7dfdqe4l)" height="29.3105" style="stroke: #A80036; stroke-width: 1.0;" width="10" x="663" y="292.9043"/><polygon fill="#A80036" points="197.5,81.1094,207.5,85.1094,197.5,89.1094,201.5,85.1094" style="stroke: #A80036; stroke-width: 1.0;"/><line style="stroke: #A80036; stroke-width: 1.0;" x1="49.5" x2="203.5" y1="85.1094" y2="85.1094"/><text fill="#000000" font-family="sans-serif" font-size="13" lengthAdjust="spacingAndGlyphs" textLength="50" x="56.5" y="65.0566">Request</text><text fill="#000000" font-family="sans-serif" font-size="13" lengthAdjust="spacingAndGlyphs" textLength="126" x="56.5" y="80.3672">Notable Person data</text><polygon fill="#A80036" points="531.5,125.7305,541.5,129.7305,531.5,133.7305,535.5,129.7305" style="stroke: #A80036; stroke-width: 1.0;"/><line style="stroke: #A80036; stroke-width: 1.0;" x1="219.5" x2="537.5" y1="129.7305" y2="129.7305"/><text fill="#000000" font-family="sans-serif" font-size="13" lengthAdjust="spacingAndGlyphs" textLength="50" x="226.5" y="109.6777">Request</text><text fill="#000000" font-family="sans-serif" font-size="13" lengthAdjust="spacingAndGlyphs" textLength="126" x="226.5" y="124.9883">Notable Person data</text><polygon fill="#A80036" points="230.5,170.3516,220.5,174.3516,230.5,178.3516,226.5,174.3516" style="stroke: #A80036; stroke-width: 1.0;"/><line style="stroke: #A80036; stroke-width: 1.0;" x1="224.5" x2="547.5" y1="174.3516" y2="174.3516"/><text fill="#000000" font-family="sans-serif" font-size="13" lengthAdjust="spacingAndGlyphs" textLength="41" x="236.5" y="154.2988">Return</text><text fill="#000000" font-family="sans-serif" font-size="13" lengthAdjust="spacingAndGlyphs" textLength="126" x="236.5" y="169.6094">Notable Person data</text><polygon fill="#A80036" points="60.5,230.2832,50.5,234.2832,60.5,238.2832,56.5,234.2832" style="stroke: #A80036; stroke-width: 1.0;"/><line style="stroke: #A80036; stroke-width: 1.0;" x1="54.5" x2="213.5" y1="234.2832" y2="234.2832"/><text fill="#000000" font-family="sans-serif" font-size="13" lengthAdjust="spacingAndGlyphs" textLength="41" x="66.5" y="198.9199">Return</text><text fill="#000000" font-family="sans-serif" font-size="13" lengthAdjust="spacingAndGlyphs" textLength="126" x="66.5" y="214.2305">Notable Person data</text><text fill="#000000" font-family="sans-serif" font-size="13" lengthAdjust="spacingAndGlyphs" textLength="136" x="66.5" y="229.541">(including photo URL)</text><polygon fill="#A80036" points="379,259.5938,389,263.5938,379,267.5938,383,263.5938" style="stroke: #A80036; stroke-width: 1.0;"/><line style="stroke: #A80036; stroke-width: 1.0;" x1="49.5" x2="385" y1="263.5938" y2="263.5938"/><text fill="#000000" font-family="sans-serif" font-size="13" lengthAdjust="spacingAndGlyphs" textLength="91" x="56.5" y="258.8516">Request photo</text><polygon fill="#A80036" points="651,288.9043,661,292.9043,651,296.9043,655,292.9043" style="stroke: #A80036; stroke-width: 1.0;"/><line style="stroke: #A80036; stroke-width: 1.0;" x1="401" x2="657" y1="292.9043" y2="292.9043"/><text fill="#000000" font-family="sans-serif" font-size="13" lengthAdjust="spacingAndGlyphs" textLength="91" x="408" y="288.1621">Request photo</text><polygon fill="#A80036" points="412,318.2148,402,322.2148,412,326.2148,408,322.2148" style="stroke: #A80036; stroke-width: 1.0;"/><line style="stroke: #A80036; stroke-width: 1.0;" x1="406" x2="667" y1="322.2148" y2="322.2148"/><text fill="#000000" font-family="sans-serif" font-size="13" lengthAdjust="spacingAndGlyphs" textLength="82" x="418" y="317.4727">Return photo</text><polygon fill="#A80036" points="55.5,347.5254,45.5,351.5254,55.5,355.5254,51.5,351.5254" style="stroke: #A80036; stroke-width: 1.0;"/><line style="stroke: #A80036; stroke-width: 1.0;" x1="49.5" x2="395" y1="351.5254" y2="351.5254"/><text fill="#000000" font-family="sans-serif" font-size="13" lengthAdjust="spacingAndGlyphs" textLength="82" x="61.5" y="346.7832">Return photo</text></g></svg>
