<?xml version="1.0" encoding="UTF-8" standalone="no"?><svg xmlns="http://www.w3.org/2000/svg" xmlns:xlink="http://www.w3.org/1999/xlink" contentScriptType="application/ecmascript" contentStyleType="text/css" height="347px" preserveAspectRatio="none" style="width:555px;height:347px;" version="1.1" viewBox="0 0 555 347" width="555px" zoomAndPan="magnify"><defs><filter height="300%" id="f1kngeakd3womb" width="300%" x="-1" y="-1"><feGaussianBlur result="blurOut" stdDeviation="2.0"/><feColorMatrix in="blurOut" result="blurOut2" type="matrix" values="0 0 0 0 0 0 0 0 0 0 0 0 0 0 0 0 0 0 .4 0"/><feOffset dx="4.0" dy="4.0" in="blurOut2" result="blurOut3"/><feBlend in="SourceGraphic" in2="blurOut3" mode="normal"/></filter></defs><g><rect fill="#FFFFFF" filter="url(#f1kngeakd3womb)" height="67.1108" style="stroke: #A80036; stroke-width: 1.0;" width="10" x="171.5" y="92.4727"/><rect fill="#FFFFFF" filter="url(#f1kngeakd3womb)" height="95.1108" style="stroke: #A80036; stroke-width: 1.0;" width="10" x="326.5" y="191.2871"/><rect fill="#FFFFFF" filter="url(#f1kngeakd3womb)" height="31.7036" style="stroke: #A80036; stroke-width: 1.0;" width="10" x="485" y="222.9907"/><line style="stroke: #A80036; stroke-width: 1.0; stroke-dasharray: 5.0,5.0;" x1="44" x2="44" y1="41.0654" y2="304.3979"/><line style="stroke: #A80036; stroke-width: 1.0; stroke-dasharray: 5.0,5.0;" x1="176.5" x2="176.5" y1="41.0654" y2="304.3979"/><line style="stroke: #A80036; stroke-width: 1.0; stroke-dasharray: 5.0,5.0;" x1="331.5" x2="331.5" y1="41.0654" y2="304.3979"/><line style="stroke: #A80036; stroke-width: 1.0; stroke-dasharray: 5.0,5.0;" x1="489.5" x2="489.5" y1="41.0654" y2="304.3979"/><rect fill="#FEFECE" filter="url(#f1kngeakd3womb)" height="33.0654" style="stroke: #A80036; stroke-width: 1.5;" width="69" x="8" y="3"/><text fill="#000000" font-family="sans-serif" font-size="14" lengthAdjust="spacingAndGlyphs" textLength="55" x="15" y="24.9639">Browser</text><rect fill="#FEFECE" filter="url(#f1kngeakd3womb)" height="33.0654" style="stroke: #A80036; stroke-width: 1.5;" width="69" x="8" y="303.3979"/><text fill="#000000" font-family="sans-serif" font-size="14" lengthAdjust="spacingAndGlyphs" textLength="55" x="15" y="325.3618">Browser</text><rect fill="#FEFECE" filter="url(#f1kngeakd3womb)" height="33.0654" style="stroke: #A80036; stroke-width: 1.5;" width="106" x="121.5" y="3"/><text fill="#000000" font-family="sans-serif" font-size="14" lengthAdjust="spacingAndGlyphs" textLength="92" x="128.5" y="24.9639">AlgoliaSearch</text><rect fill="#FEFECE" filter="url(#f1kngeakd3womb)" height="33.0654" style="stroke: #A80036; stroke-width: 1.5;" width="106" x="121.5" y="303.3979"/><text fill="#000000" font-family="sans-serif" font-size="14" lengthAdjust="spacingAndGlyphs" textLength="92" x="128.5" y="325.3618">AlgoliaSearch</text><rect fill="#FEFECE" filter="url(#f1kngeakd3womb)" height="33.0654" style="stroke: #A80036; stroke-width: 1.5;" width="176" x="241.5" y="3"/><text fill="#000000" font-family="sans-serif" font-size="14" lengthAdjust="spacingAndGlyphs" textLength="162" x="248.5" y="24.9639">photos.hollowverse.com</text><rect fill="#FEFECE" filter="url(#f1kngeakd3womb)" height="33.0654" style="stroke: #A80036; stroke-width: 1.5;" width="176" x="241.5" y="303.3979"/><text fill="#000000" font-family="sans-serif" font-size="14" lengthAdjust="spacingAndGlyphs" textLength="162" x="248.5" y="325.3618">photos.hollowverse.com</text><rect fill="#FEFECE" filter="url(#f1kngeakd3womb)" height="33.0654" style="stroke: #A80036; stroke-width: 1.5;" width="113" x="431.5" y="3"/><text fill="#000000" font-family="sans-serif" font-size="14" lengthAdjust="spacingAndGlyphs" textLength="99" x="438.5" y="24.9639">AWS S3 bucket</text><rect fill="#FEFECE" filter="url(#f1kngeakd3womb)" height="33.0654" style="stroke: #A80036; stroke-width: 1.5;" width="113" x="431.5" y="303.3979"/><text fill="#000000" font-family="sans-serif" font-size="14" lengthAdjust="spacingAndGlyphs" textLength="99" x="438.5" y="325.3618">AWS S3 bucket</text><rect fill="#FFFFFF" filter="url(#f1kngeakd3womb)" height="67.1108" style="stroke: #A80036; stroke-width: 1.0;" width="10" x="171.5" y="92.4727"/><rect fill="#FFFFFF" filter="url(#f1kngeakd3womb)" height="95.1108" style="stroke: #A80036; stroke-width: 1.0;" width="10" x="326.5" y="191.2871"/><rect fill="#FFFFFF" filter="url(#f1kngeakd3womb)" height="31.7036" style="stroke: #A80036; stroke-width: 1.0;" width="10" x="485" y="222.9907"/><polygon fill="#A80036" points="159.5,88.4727,169.5,92.4727,159.5,96.4727,163.5,92.4727" style="stroke: #A80036; stroke-width: 1.0;"/><line style="stroke: #A80036; stroke-width: 1.0;" x1="44.5" x2="165.5" y1="92.4727" y2="92.4727"/><text fill="#000000" font-family="sans-serif" font-size="13" lengthAdjust="spacingAndGlyphs" textLength="92" x="51.5" y="68.9604">Request results</text><text fill="#000000" font-family="sans-serif" font-size="13" lengthAdjust="spacingAndGlyphs" textLength="88" x="51.5" y="86.6641">for user search</text><polygon fill="#A80036" points="55.5,155.5835,45.5,159.5835,55.5,163.5835,51.5,159.5835" style="stroke: #A80036; stroke-width: 1.0;"/><line style="stroke: #A80036; stroke-width: 1.0;" x1="49.5" x2="175.5" y1="159.5835" y2="159.5835"/><text fill="#000000" font-family="sans-serif" font-size="13" lengthAdjust="spacingAndGlyphs" textLength="83" x="61.5" y="118.3677">Return search</text><text fill="#000000" font-family="sans-serif" font-size="13" lengthAdjust="spacingAndGlyphs" textLength="103" x="61.5" y="136.0713">results (including</text><text fill="#000000" font-family="sans-serif" font-size="13" lengthAdjust="spacingAndGlyphs" textLength="76" x="61.5" y="153.7749">photo URLs)</text><polygon fill="#A80036" points="314.5,187.2871,324.5,191.2871,314.5,195.2871,318.5,191.2871" style="stroke: #A80036; stroke-width: 1.0;"/><line style="stroke: #A80036; stroke-width: 1.0;" x1="44.5" x2="320.5" y1="191.2871" y2="191.2871"/><text fill="#000000" font-family="sans-serif" font-size="13" lengthAdjust="spacingAndGlyphs" textLength="89" x="51.5" y="185.4785">Request photo</text><polygon fill="#A80036" points="473,218.9907,483,222.9907,473,226.9907,477,222.9907" style="stroke: #A80036; stroke-width: 1.0;"/><line style="stroke: #A80036; stroke-width: 1.0;" x1="336.5" x2="479" y1="222.9907" y2="222.9907"/><text fill="#000000" font-family="sans-serif" font-size="13" lengthAdjust="spacingAndGlyphs" textLength="89" x="343.5" y="217.1821">Request photo</text><polygon fill="#A80036" points="347.5,250.6943,337.5,254.6943,347.5,258.6943,343.5,254.6943" style="stroke: #A80036; stroke-width: 1.0;"/><line style="stroke: #A80036; stroke-width: 1.0;" x1="341.5" x2="489" y1="254.6943" y2="254.6943"/><text fill="#000000" font-family="sans-serif" font-size="13" lengthAdjust="spacingAndGlyphs" textLength="81" x="353.5" y="248.8857">Return photo</text><polygon fill="#A80036" points="55.5,282.3979,45.5,286.3979,55.5,290.3979,51.5,286.3979" style="stroke: #A80036; stroke-width: 1.0;"/><line style="stroke: #A80036; stroke-width: 1.0;" x1="49.5" x2="330.5" y1="286.3979" y2="286.3979"/><text fill="#000000" font-family="sans-serif" font-size="13" lengthAdjust="spacingAndGlyphs" textLength="81" x="61.5" y="280.5894">Return photo</text></g></svg>
