<?xml version="1.0" encoding="UTF-8" standalone="no"?><svg xmlns="http://www.w3.org/2000/svg" xmlns:xlink="http://www.w3.org/1999/xlink" contentScriptType="application/ecmascript" contentStyleType="text/css" height="468px" preserveAspectRatio="none" style="width:856px;height:468px;" version="1.1" viewBox="0 0 856 468" width="856px" zoomAndPan="magnify"><defs><filter height="300%" id="f1esgb00rfin9i" width="300%" x="-1" y="-1"><feGaussianBlur result="blurOut" stdDeviation="2.0"/><feColorMatrix in="blurOut" result="blurOut2" type="matrix" values="0 0 0 0 0 0 0 0 0 0 0 0 0 0 0 0 0 0 .4 0"/><feOffset dx="4.0" dy="4.0" in="blurOut2" result="blurOut3"/><feBlend in="SourceGraphic" in2="blurOut3" mode="normal"/></filter></defs><g><rect fill="#FFFFFF" filter="url(#f1esgb00rfin9i)" height="149.1738" style="stroke: #A80036; stroke-width: 1.0;" width="10" x="204.5" y="85.1094"/><rect fill="#FFFFFF" filter="url(#f1esgb00rfin9i)" height="44.6211" style="stroke: #A80036; stroke-width: 1.0;" width="10" x="364.5" y="129.7305"/><rect fill="#FFFFFF" filter="url(#f1esgb00rfin9i)" height="146.5527" style="stroke: #A80036; stroke-width: 1.0;" width="10" x="517" y="263.5938"/><rect fill="#FFFFFF" filter="url(#f1esgb00rfin9i)" height="87.9316" style="stroke: #A80036; stroke-width: 1.0;" width="10" x="667.5" y="292.9043"/><rect fill="#FFFFFF" filter="url(#f1esgb00rfin9i)" height="29.3105" style="stroke: #A80036; stroke-width: 1.0;" width="10" x="785" y="322.2148"/><line style="stroke: #A80036; stroke-width: 1.0; stroke-dasharray: 5.0,5.0;" x1="44" x2="44" y1="38.4883" y2="428.1465"/><line style="stroke: #A80036; stroke-width: 1.0; stroke-dasharray: 5.0,5.0;" x1="209.5" x2="209.5" y1="38.4883" y2="428.1465"/><line style="stroke: #A80036; stroke-width: 1.0; stroke-dasharray: 5.0,5.0;" x1="369.5" x2="369.5" y1="38.4883" y2="428.1465"/><line style="stroke: #A80036; stroke-width: 1.0; stroke-dasharray: 5.0,5.0;" x1="521.5" x2="521.5" y1="38.4883" y2="428.1465"/><line style="stroke: #A80036; stroke-width: 1.0; stroke-dasharray: 5.0,5.0;" x1="672.5" x2="672.5" y1="38.4883" y2="428.1465"/><line style="stroke: #A80036; stroke-width: 1.0; stroke-dasharray: 5.0,5.0;" x1="789.5" x2="789.5" y1="38.4883" y2="428.1465"/><rect fill="#FEFECE" filter="url(#f1esgb00rfin9i)" height="30.4883" style="stroke: #A80036; stroke-width: 1.5;" width="69" x="8" y="3"/><text fill="#000000" font-family="sans-serif" font-size="14" lengthAdjust="spacingAndGlyphs" textLength="55" x="15" y="23.5352">Browser</text><rect fill="#FEFECE" filter="url(#f1esgb00rfin9i)" height="30.4883" style="stroke: #A80036; stroke-width: 1.5;" width="69" x="8" y="427.1465"/><text fill="#000000" font-family="sans-serif" font-size="14" lengthAdjust="spacingAndGlyphs" textLength="55" x="15" y="447.6816">Browser</text><rect fill="#FEFECE" filter="url(#f1esgb00rfin9i)" height="30.4883" style="stroke: #A80036; stroke-width: 1.5;" width="154" x="130.5" y="3"/><text fill="#000000" font-family="sans-serif" font-size="14" lengthAdjust="spacingAndGlyphs" textLength="140" x="137.5" y="23.5352">api.hollowverse.com</text><rect fill="#FEFECE" filter="url(#f1esgb00rfin9i)" height="30.4883" style="stroke: #A80036; stroke-width: 1.5;" width="154" x="130.5" y="427.1465"/><text fill="#000000" font-family="sans-serif" font-size="14" lengthAdjust="spacingAndGlyphs" textLength="140" x="137.5" y="447.6816">api.hollowverse.com</text><rect fill="#FEFECE" filter="url(#f1esgb00rfin9i)" height="30.4883" style="stroke: #A80036; stroke-width: 1.5;" width="96" x="319.5" y="3"/><text fill="#000000" font-family="sans-serif" font-size="14" lengthAdjust="spacingAndGlyphs" textLength="82" x="326.5" y="23.5352">AWS Aurora</text><rect fill="#FEFECE" filter="url(#f1esgb00rfin9i)" height="30.4883" style="stroke: #A80036; stroke-width: 1.5;" width="96" x="319.5" y="427.1465"/><text fill="#000000" font-family="sans-serif" font-size="14" lengthAdjust="spacingAndGlyphs" textLength="82" x="326.5" y="447.6816">AWS Aurora</text><rect fill="#FEFECE" filter="url(#f1esgb00rfin9i)" height="30.4883" style="stroke: #A80036; stroke-width: 1.5;" width="181" x="429.5" y="3"/><text fill="#000000" font-family="sans-serif" font-size="14" lengthAdjust="spacingAndGlyphs" textLength="167" x="436.5" y="23.5352">photos.hollowverse.com</text><rect fill="#FEFECE" filter="url(#f1esgb00rfin9i)" height="30.4883" style="stroke: #A80036; stroke-width: 1.5;" width="181" x="429.5" y="427.1465"/><text fill="#000000" font-family="sans-serif" font-size="14" lengthAdjust="spacingAndGlyphs" textLength="167" x="436.5" y="447.6816">photos.hollowverse.com</text><rect fill="#FEFECE" filter="url(#f1esgb00rfin9i)" height="30.4883" style="stroke: #A80036; stroke-width: 1.5;" width="92" x="624.5" y="3"/><text fill="#000000" font-family="sans-serif" font-size="14" lengthAdjust="spacingAndGlyphs" textLength="78" x="631.5" y="23.5352">CloudFront</text><rect fill="#FEFECE" filter="url(#f1esgb00rfin9i)" height="30.4883" style="stroke: #A80036; stroke-width: 1.5;" width="92" x="624.5" y="427.1465"/><text fill="#000000" font-family="sans-serif" font-size="14" lengthAdjust="spacingAndGlyphs" textLength="78" x="631.5" y="447.6816">CloudFront</text><rect fill="#FEFECE" filter="url(#f1esgb00rfin9i)" height="30.4883" style="stroke: #A80036; stroke-width: 1.5;" width="115" x="730.5" y="3"/><text fill="#000000" font-family="sans-serif" font-size="14" lengthAdjust="spacingAndGlyphs" textLength="101" x="737.5" y="23.5352">AWS S3 bucket</text><rect fill="#FEFECE" filter="url(#f1esgb00rfin9i)" height="30.4883" style="stroke: #A80036; stroke-width: 1.5;" width="115" x="730.5" y="427.1465"/><text fill="#000000" font-family="sans-serif" font-size="14" lengthAdjust="spacingAndGlyphs" textLength="101" x="737.5" y="447.6816">AWS S3 bucket</text><rect fill="#FFFFFF" filter="url(#f1esgb00rfin9i)" height="149.1738" style="stroke: #A80036; stroke-width: 1.0;" width="10" x="204.5" y="85.1094"/><rect fill="#FFFFFF" filter="url(#f1esgb00rfin9i)" height="44.6211" style="stroke: #A80036; stroke-width: 1.0;" width="10" x="364.5" y="129.7305"/><rect fill="#FFFFFF" filter="url(#f1esgb00rfin9i)" height="146.5527" style="stroke: #A80036; stroke-width: 1.0;" width="10" x="517" y="263.5938"/><rect fill="#FFFFFF" filter="url(#f1esgb00rfin9i)" height="87.9316" style="stroke: #A80036; stroke-width: 1.0;" width="10" x="667.5" y="292.9043"/><rect fill="#FFFFFF" filter="url(#f1esgb00rfin9i)" height="29.3105" style="stroke: #A80036; stroke-width: 1.0;" width="10" x="785" y="322.2148"/><polygon fill="#A80036" points="192.5,81.1094,202.5,85.1094,192.5,89.1094,196.5,85.1094" style="stroke: #A80036; stroke-width: 1.0;"/><line style="stroke: #A80036; stroke-width: 1.0;" x1="44.5" x2="198.5" y1="85.1094" y2="85.1094"/><text fill="#000000" font-family="sans-serif" font-size="13" lengthAdjust="spacingAndGlyphs" textLength="50" x="51.5" y="65.0566">Request</text><text fill="#000000" font-family="sans-serif" font-size="13" lengthAdjust="spacingAndGlyphs" textLength="126" x="51.5" y="80.3672">Notable Person data</text><polygon fill="#A80036" points="352.5,125.7305,362.5,129.7305,352.5,133.7305,356.5,129.7305" style="stroke: #A80036; stroke-width: 1.0;"/><line style="stroke: #A80036; stroke-width: 1.0;" x1="214.5" x2="358.5" y1="129.7305" y2="129.7305"/><text fill="#000000" font-family="sans-serif" font-size="13" lengthAdjust="spacingAndGlyphs" textLength="50" x="221.5" y="109.6777">Request</text><text fill="#000000" font-family="sans-serif" font-size="13" lengthAdjust="spacingAndGlyphs" textLength="126" x="221.5" y="124.9883">Notable Person data</text><polygon fill="#A80036" points="225.5,170.3516,215.5,174.3516,225.5,178.3516,221.5,174.3516" style="stroke: #A80036; stroke-width: 1.0;"/><line style="stroke: #A80036; stroke-width: 1.0;" x1="219.5" x2="368.5" y1="174.3516" y2="174.3516"/><text fill="#000000" font-family="sans-serif" font-size="13" lengthAdjust="spacingAndGlyphs" textLength="41" x="231.5" y="154.2988">Return</text><text fill="#000000" font-family="sans-serif" font-size="13" lengthAdjust="spacingAndGlyphs" textLength="126" x="231.5" y="169.6094">Notable Person data</text><polygon fill="#A80036" points="55.5,230.2832,45.5,234.2832,55.5,238.2832,51.5,234.2832" style="stroke: #A80036; stroke-width: 1.0;"/><line style="stroke: #A80036; stroke-width: 1.0;" x1="49.5" x2="208.5" y1="234.2832" y2="234.2832"/><text fill="#000000" font-family="sans-serif" font-size="13" lengthAdjust="spacingAndGlyphs" textLength="41" x="61.5" y="198.9199">Return</text><text fill="#000000" font-family="sans-serif" font-size="13" lengthAdjust="spacingAndGlyphs" textLength="126" x="61.5" y="214.2305">Notable Person data</text><text fill="#000000" font-family="sans-serif" font-size="13" lengthAdjust="spacingAndGlyphs" textLength="136" x="61.5" y="229.541">(including photo URL)</text><polygon fill="#A80036" points="505,259.5938,515,263.5938,505,267.5938,509,263.5938" style="stroke: #A80036; stroke-width: 1.0;"/><line style="stroke: #A80036; stroke-width: 1.0;" x1="44.5" x2="511" y1="263.5938" y2="263.5938"/><text fill="#000000" font-family="sans-serif" font-size="13" lengthAdjust="spacingAndGlyphs" textLength="91" x="51.5" y="258.8516">Request photo</text><polygon fill="#A80036" points="655.5,288.9043,665.5,292.9043,655.5,296.9043,659.5,292.9043" style="stroke: #A80036; stroke-width: 1.0;"/><line style="stroke: #A80036; stroke-width: 1.0;" x1="527" x2="661.5" y1="292.9043" y2="292.9043"/><text fill="#000000" font-family="sans-serif" font-size="13" lengthAdjust="spacingAndGlyphs" textLength="91" x="534" y="288.1621">Request photo</text><polygon fill="#A80036" points="773,318.2148,783,322.2148,773,326.2148,777,322.2148" style="stroke: #A80036; stroke-width: 1.0;"/><line style="stroke: #A80036; stroke-width: 1.0;" x1="677.5" x2="779" y1="322.2148" y2="322.2148"/><text fill="#000000" font-family="sans-serif" font-size="13" lengthAdjust="spacingAndGlyphs" textLength="75" x="684.5" y="317.4727">Fetch photo</text><polygon fill="#A80036" points="688.5,347.5254,678.5,351.5254,688.5,355.5254,684.5,351.5254" style="stroke: #A80036; stroke-width: 1.0;"/><line style="stroke: #A80036; stroke-width: 1.0;" x1="682.5" x2="789" y1="351.5254" y2="351.5254"/><text fill="#000000" font-family="sans-serif" font-size="13" lengthAdjust="spacingAndGlyphs" textLength="79" x="694.5" y="346.7832">Cache photo</text><polygon fill="#A80036" points="538,376.8359,528,380.8359,538,384.8359,534,380.8359" style="stroke: #A80036; stroke-width: 1.0;"/><line style="stroke: #A80036; stroke-width: 1.0;" x1="532" x2="671.5" y1="380.8359" y2="380.8359"/><text fill="#000000" font-family="sans-serif" font-size="13" lengthAdjust="spacingAndGlyphs" textLength="82" x="544" y="376.0938">Return photo</text><polygon fill="#A80036" points="55.5,406.1465,45.5,410.1465,55.5,414.1465,51.5,410.1465" style="stroke: #A80036; stroke-width: 1.0;"/><line style="stroke: #A80036; stroke-width: 1.0;" x1="49.5" x2="521" y1="410.1465" y2="410.1465"/><text fill="#000000" font-family="sans-serif" font-size="13" lengthAdjust="spacingAndGlyphs" textLength="82" x="61.5" y="405.4043">Return photo</text></g></svg>
