<?xml version="1.0" encoding="UTF-8" standalone="no"?><svg xmlns="http://www.w3.org/2000/svg" xmlns:xlink="http://www.w3.org/1999/xlink" contentScriptType="application/ecmascript" contentStyleType="text/css" height="446px" preserveAspectRatio="none" style="width:721px;height:446px;" version="1.1" viewBox="0 0 721 446" width="721px" zoomAndPan="magnify"><defs><filter height="300%" id="f1o1mt7dfdqe4l" width="300%" x="-1" y="-1"><feGaussianBlur result="blurOut" stdDeviation="2.0"/><feColorMatrix in="blurOut" result="blurOut2" type="matrix" values="0 0 0 0 0 0 0 0 0 0 0 0 0 0 0 0 0 0 .4 0"/><feOffset dx="4.0" dy="4.0" in="blurOut2" result="blurOut3"/><feBlend in="SourceGraphic" in2="blurOut3" mode="normal"/></filter></defs><g><rect fill="#FFFFFF" filter="url(#f1o1mt7dfdqe4l)" height="334.147" style="stroke: #A80036; stroke-width: 1.0;" width="10" x="39.5" y="51.0654"/><rect fill="#FFFFFF" filter="url(#f1o1mt7dfdqe4l)" height="165.9253" style="stroke: #A80036; stroke-width: 1.0;" width="10" x="206.5" y="92.4727"/><rect fill="#FFFFFF" filter="url(#f1o1mt7dfdqe4l)" height="95.1108" style="stroke: #A80036; stroke-width: 1.0;" width="10" x="384" y="290.1016"/><rect fill="#FFFFFF" filter="url(#f1o1mt7dfdqe4l)" height="49.4072" style="stroke: #A80036; stroke-width: 1.0;" width="10" x="533" y="141.8799"/><rect fill="#FFFFFF" filter="url(#f1o1mt7dfdqe4l)" height="31.7036" style="stroke: #A80036; stroke-width: 1.0;" width="10" x="650.5" y="321.8052"/><line style="stroke: #A80036; stroke-width: 1.0; stroke-dasharray: 5.0,5.0;" x1="44" x2="44" y1="41.0654" y2="403.2124"/><line style="stroke: #A80036; stroke-width: 1.0; stroke-dasharray: 5.0,5.0;" x1="211" x2="211" y1="41.0654" y2="403.2124"/><line style="stroke: #A80036; stroke-width: 1.0; stroke-dasharray: 5.0,5.0;" x1="389" x2="389" y1="41.0654" y2="403.2124"/><line style="stroke: #A80036; stroke-width: 1.0; stroke-dasharray: 5.0,5.0;" x1="538" x2="538" y1="41.0654" y2="403.2124"/><line style="stroke: #A80036; stroke-width: 1.0; stroke-dasharray: 5.0,5.0;" x1="655" x2="655" y1="41.0654" y2="403.2124"/><rect fill="#FEFECE" filter="url(#f1o1mt7dfdqe4l)" height="33.0654" style="stroke: #A80036; stroke-width: 1.5;" width="69" x="8" y="3"/><text fill="#000000" font-family="sans-serif" font-size="14" lengthAdjust="spacingAndGlyphs" textLength="55" x="15" y="24.9639">Browser</text><rect fill="#FEFECE" filter="url(#f1o1mt7dfdqe4l)" height="33.0654" style="stroke: #A80036; stroke-width: 1.5;" width="69" x="8" y="402.2124"/><text fill="#000000" font-family="sans-serif" font-size="14" lengthAdjust="spacingAndGlyphs" textLength="55" x="15" y="424.1763">Browser</text><rect fill="#FEFECE" filter="url(#f1o1mt7dfdqe4l)" height="33.0654" style="stroke: #A80036; stroke-width: 1.5;" width="151" x="134" y="3"/><text fill="#000000" font-family="sans-serif" font-size="14" lengthAdjust="spacingAndGlyphs" textLength="137" x="141" y="24.9639">api.hollowverse.com</text><rect fill="#FEFECE" filter="url(#f1o1mt7dfdqe4l)" height="33.0654" style="stroke: #A80036; stroke-width: 1.5;" width="151" x="134" y="402.2124"/><text fill="#000000" font-family="sans-serif" font-size="14" lengthAdjust="spacingAndGlyphs" textLength="137" x="141" y="424.1763">api.hollowverse.com</text><rect fill="#FEFECE" filter="url(#f1o1mt7dfdqe4l)" height="33.0654" style="stroke: #A80036; stroke-width: 1.5;" width="176" x="299" y="3"/><text fill="#000000" font-family="sans-serif" font-size="14" lengthAdjust="spacingAndGlyphs" textLength="162" x="306" y="24.9639">photos.hollowverse.com</text><rect fill="#FEFECE" filter="url(#f1o1mt7dfdqe4l)" height="33.0654" style="stroke: #A80036; stroke-width: 1.5;" width="176" x="299" y="402.2124"/><text fill="#000000" font-family="sans-serif" font-size="14" lengthAdjust="spacingAndGlyphs" textLength="162" x="306" y="424.1763">photos.hollowverse.com</text><rect fill="#FEFECE" filter="url(#f1o1mt7dfdqe4l)" height="33.0654" style="stroke: #A80036; stroke-width: 1.5;" width="94" x="489" y="3"/><text fill="#000000" font-family="sans-serif" font-size="14" lengthAdjust="spacingAndGlyphs" textLength="80" x="496" y="24.9639">AWS Aurora</text><rect fill="#FEFECE" filter="url(#f1o1mt7dfdqe4l)" height="33.0654" style="stroke: #A80036; stroke-width: 1.5;" width="94" x="489" y="402.2124"/><text fill="#000000" font-family="sans-serif" font-size="14" lengthAdjust="spacingAndGlyphs" textLength="80" x="496" y="424.1763">AWS Aurora</text><rect fill="#FEFECE" filter="url(#f1o1mt7dfdqe4l)" height="33.0654" style="stroke: #A80036; stroke-width: 1.5;" width="113" x="597" y="3"/><text fill="#000000" font-family="sans-serif" font-size="14" lengthAdjust="spacingAndGlyphs" textLength="99" x="604" y="24.9639">AWS S3 bucket</text><rect fill="#FEFECE" filter="url(#f1o1mt7dfdqe4l)" height="33.0654" style="stroke: #A80036; stroke-width: 1.5;" width="113" x="597" y="402.2124"/><text fill="#000000" font-family="sans-serif" font-size="14" lengthAdjust="spacingAndGlyphs" textLength="99" x="604" y="424.1763">AWS S3 bucket</text><rect fill="#FFFFFF" filter="url(#f1o1mt7dfdqe4l)" height="334.147" style="stroke: #A80036; stroke-width: 1.0;" width="10" x="39.5" y="51.0654"/><rect fill="#FFFFFF" filter="url(#f1o1mt7dfdqe4l)" height="165.9253" style="stroke: #A80036; stroke-width: 1.0;" width="10" x="206.5" y="92.4727"/><rect fill="#FFFFFF" filter="url(#f1o1mt7dfdqe4l)" height="95.1108" style="stroke: #A80036; stroke-width: 1.0;" width="10" x="384" y="290.1016"/><rect fill="#FFFFFF" filter="url(#f1o1mt7dfdqe4l)" height="49.4072" style="stroke: #A80036; stroke-width: 1.0;" width="10" x="533" y="141.8799"/><rect fill="#FFFFFF" filter="url(#f1o1mt7dfdqe4l)" height="31.7036" style="stroke: #A80036; stroke-width: 1.0;" width="10" x="650.5" y="321.8052"/><polygon fill="#A80036" points="194.5,88.4727,204.5,92.4727,194.5,96.4727,198.5,92.4727" style="stroke: #A80036; stroke-width: 1.0;"/><line style="stroke: #A80036; stroke-width: 1.0;" x1="49.5" x2="200.5" y1="92.4727" y2="92.4727"/><text fill="#000000" font-family="sans-serif" font-size="13" lengthAdjust="spacingAndGlyphs" textLength="49" x="56.5" y="68.9604">Request</text><text fill="#000000" font-family="sans-serif" font-size="13" lengthAdjust="spacingAndGlyphs" textLength="123" x="56.5" y="86.6641">Notable Person data</text><polygon fill="#A80036" points="521,137.8799,531,141.8799,521,145.8799,525,141.8799" style="stroke: #A80036; stroke-width: 1.0;"/><line style="stroke: #A80036; stroke-width: 1.0;" x1="216.5" x2="527" y1="141.8799" y2="141.8799"/><text fill="#000000" font-family="sans-serif" font-size="13" lengthAdjust="spacingAndGlyphs" textLength="49" x="223.5" y="118.3677">Request</text><text fill="#000000" font-family="sans-serif" font-size="13" lengthAdjust="spacingAndGlyphs" textLength="123" x="223.5" y="136.0713">Notable Person data</text><polygon fill="#A80036" points="227.5,187.2871,217.5,191.2871,227.5,195.2871,223.5,191.2871" style="stroke: #A80036; stroke-width: 1.0;"/><line style="stroke: #A80036; stroke-width: 1.0;" x1="221.5" x2="537" y1="191.2871" y2="191.2871"/><text fill="#000000" font-family="sans-serif" font-size="13" lengthAdjust="spacingAndGlyphs" textLength="41" x="233.5" y="167.7749">Return</text><text fill="#000000" font-family="sans-serif" font-size="13" lengthAdjust="spacingAndGlyphs" textLength="123" x="233.5" y="185.4785">Notable Person data</text><polygon fill="#A80036" points="60.5,254.3979,50.5,258.3979,60.5,262.3979,56.5,258.3979" style="stroke: #A80036; stroke-width: 1.0;"/><line style="stroke: #A80036; stroke-width: 1.0;" x1="54.5" x2="210.5" y1="258.3979" y2="258.3979"/><text fill="#000000" font-family="sans-serif" font-size="13" lengthAdjust="spacingAndGlyphs" textLength="41" x="66.5" y="217.1821">Return</text><text fill="#000000" font-family="sans-serif" font-size="13" lengthAdjust="spacingAndGlyphs" textLength="123" x="66.5" y="234.8857">Notable Person data</text><text fill="#000000" font-family="sans-serif" font-size="13" lengthAdjust="spacingAndGlyphs" textLength="133" x="66.5" y="252.5894">(including photo URL)</text><polygon fill="#A80036" points="372,286.1016,382,290.1016,372,294.1016,376,290.1016" style="stroke: #A80036; stroke-width: 1.0;"/><line style="stroke: #A80036; stroke-width: 1.0;" x1="49.5" x2="378" y1="290.1016" y2="290.1016"/><text fill="#000000" font-family="sans-serif" font-size="13" lengthAdjust="spacingAndGlyphs" textLength="89" x="56.5" y="284.293">Request photo</text><polygon fill="#A80036" points="638.5,317.8052,648.5,321.8052,638.5,325.8052,642.5,321.8052" style="stroke: #A80036; stroke-width: 1.0;"/><line style="stroke: #A80036; stroke-width: 1.0;" x1="394" x2="644.5" y1="321.8052" y2="321.8052"/><text fill="#000000" font-family="sans-serif" font-size="13" lengthAdjust="spacingAndGlyphs" textLength="89" x="401" y="315.9966">Request photo</text><polygon fill="#A80036" points="405,349.5088,395,353.5088,405,357.5088,401,353.5088" style="stroke: #A80036; stroke-width: 1.0;"/><line style="stroke: #A80036; stroke-width: 1.0;" x1="399" x2="654.5" y1="353.5088" y2="353.5088"/><text fill="#000000" font-family="sans-serif" font-size="13" lengthAdjust="spacingAndGlyphs" textLength="81" x="411" y="347.7002">Return photo</text><polygon fill="#A80036" points="55.5,381.2124,45.5,385.2124,55.5,389.2124,51.5,385.2124" style="stroke: #A80036; stroke-width: 1.0;"/><line style="stroke: #A80036; stroke-width: 1.0;" x1="49.5" x2="388" y1="385.2124" y2="385.2124"/><text fill="#000000" font-family="sans-serif" font-size="13" lengthAdjust="spacingAndGlyphs" textLength="81" x="61.5" y="379.4038">Return photo</text></g></svg>
