<?xml version="1.0" encoding="UTF-8" standalone="no"?><svg xmlns="http://www.w3.org/2000/svg" xmlns:xlink="http://www.w3.org/1999/xlink" contentScriptType="application/ecmascript" contentStyleType="text/css" height="636px" preserveAspectRatio="none" style="width:506px;height:636px;" version="1.1" viewBox="0 0 506 636" width="506px" zoomAndPan="magnify"><defs><filter height="300%" id="fao8xy4tfvvtq" width="300%" x="-1" y="-1"><feGaussianBlur result="blurOut" stdDeviation="2.0"/><feColorMatrix in="blurOut" result="blurOut2" type="matrix" values="0 0 0 0 0 0 0 0 0 0 0 0 0 0 0 0 0 0 .4 0"/><feOffset dx="4.0" dy="4.0" in="blurOut2" result="blurOut3"/><feBlend in="SourceGraphic" in2="blurOut3" mode="normal"/></filter></defs><g><rect fill="#FFFFFF" filter="url(#fao8xy4tfvvtq)" height="44.6211" style="stroke: #A80036; stroke-width: 1.0;" width="10" x="178.5" y="237.6621"/><rect fill="#FFFFFF" filter="url(#fao8xy4tfvvtq)" height="277.7266" style="stroke: #A80036; stroke-width: 1.0;" width="10" x="314" y="193.041"/><rect fill="#FFFFFF" filter="url(#fao8xy4tfvvtq)" height="29.3105" style="stroke: #A80036; stroke-width: 1.0;" width="10" x="430" y="396.8359"/><line style="stroke: #A80036; stroke-width: 1.0; stroke-dasharray: 5.0,5.0;" x1="45" x2="45" y1="86.4883" y2="548.6992"/><line style="stroke: #A80036; stroke-width: 1.0; stroke-dasharray: 5.0,5.0;" x1="183.5" x2="183.5" y1="86.4883" y2="548.6992"/><line style="stroke: #A80036; stroke-width: 1.0; stroke-dasharray: 5.0,5.0;" x1="318.5" x2="318.5" y1="86.4883" y2="548.6992"/><line style="stroke: #A80036; stroke-width: 1.0; stroke-dasharray: 5.0,5.0;" x1="434.5" x2="434.5" y1="86.4883" y2="548.6992"/><text fill="#000000" font-family="sans-serif" font-size="14" lengthAdjust="spacingAndGlyphs" textLength="69" x="8" y="83.5352">Developer</text><ellipse cx="45.5" cy="13" fill="#FEFECE" filter="url(#fao8xy4tfvvtq)" rx="8" ry="8" style="stroke: #A80036; stroke-width: 2.0;"/><path d="M45.5,21 L45.5,48 M32.5,29 L58.5,29 M45.5,48 L32.5,63 M45.5,48 L58.5,63 " fill="none" filter="url(#fao8xy4tfvvtq)" style="stroke: #A80036; stroke-width: 2.0;"/><text fill="#000000" font-family="sans-serif" font-size="14" lengthAdjust="spacingAndGlyphs" textLength="69" x="8" y="561.2344">Developer</text><ellipse cx="45.5" cy="574.1875" fill="#FEFECE" filter="url(#fao8xy4tfvvtq)" rx="8" ry="8" style="stroke: #A80036; stroke-width: 2.0;"/><path d="M45.5,582.1875 L45.5,609.1875 M32.5,590.1875 L58.5,590.1875 M45.5,609.1875 L32.5,624.1875 M45.5,609.1875 L58.5,624.1875 " fill="none" filter="url(#fao8xy4tfvvtq)" style="stroke: #A80036; stroke-width: 2.0;"/><rect fill="#FEFECE" filter="url(#fao8xy4tfvvtq)" height="46.9766" style="stroke: #A80036; stroke-width: 1.5;" width="170" x="96.5" y="34.5117"/><text fill="#000000" font-family="sans-serif" font-size="14" lengthAdjust="spacingAndGlyphs" textLength="47" x="158" y="55.0469">GitHub</text><text fill="#000000" font-family="sans-serif" font-size="14" lengthAdjust="spacingAndGlyphs" textLength="156" x="103.5" y="71.5352">hollowverse/build-env</text><rect fill="#FEFECE" filter="url(#fao8xy4tfvvtq)" height="46.9766" style="stroke: #A80036; stroke-width: 1.5;" width="170" x="96.5" y="547.6992"/><text fill="#000000" font-family="sans-serif" font-size="14" lengthAdjust="spacingAndGlyphs" textLength="47" x="158" y="568.2344">GitHub</text><text fill="#000000" font-family="sans-serif" font-size="14" lengthAdjust="spacingAndGlyphs" textLength="156" x="103.5" y="584.7227">hollowverse/build-env</text><rect fill="#FEFECE" filter="url(#fao8xy4tfvvtq)" height="30.4883" style="stroke: #A80036; stroke-width: 1.5;" width="73" x="280.5" y="51"/><text fill="#000000" font-family="sans-serif" font-size="14" lengthAdjust="spacingAndGlyphs" textLength="59" x="287.5" y="71.5352">Travis CI</text><rect fill="#FEFECE" filter="url(#fao8xy4tfvvtq)" height="30.4883" style="stroke: #A80036; stroke-width: 1.5;" width="73" x="280.5" y="547.6992"/><text fill="#000000" font-family="sans-serif" font-size="14" lengthAdjust="spacingAndGlyphs" textLength="59" x="287.5" y="568.2344">Travis CI</text><rect fill="#FEFECE" filter="url(#fao8xy4tfvvtq)" height="30.4883" style="stroke: #A80036; stroke-width: 1.5;" width="125" x="370.5" y="51"/><text fill="#000000" font-family="sans-serif" font-size="14" lengthAdjust="spacingAndGlyphs" textLength="111" x="377.5" y="71.5352">hub.docker.com</text><rect fill="#FEFECE" filter="url(#fao8xy4tfvvtq)" height="30.4883" style="stroke: #A80036; stroke-width: 1.5;" width="125" x="370.5" y="547.6992"/><text fill="#000000" font-family="sans-serif" font-size="14" lengthAdjust="spacingAndGlyphs" textLength="111" x="377.5" y="568.2344">hub.docker.com</text><rect fill="#FFFFFF" filter="url(#fao8xy4tfvvtq)" height="44.6211" style="stroke: #A80036; stroke-width: 1.0;" width="10" x="178.5" y="237.6621"/><rect fill="#FFFFFF" filter="url(#fao8xy4tfvvtq)" height="277.7266" style="stroke: #A80036; stroke-width: 1.0;" width="10" x="314" y="193.041"/><rect fill="#FFFFFF" filter="url(#fao8xy4tfvvtq)" height="29.3105" style="stroke: #A80036; stroke-width: 1.0;" width="10" x="430" y="396.8359"/><polygon fill="#A80036" points="171.5,129.1094,181.5,133.1094,171.5,137.1094,175.5,133.1094" style="stroke: #A80036; stroke-width: 1.0;"/><line style="stroke: #A80036; stroke-width: 1.0;" x1="45.5" x2="177.5" y1="133.1094" y2="133.1094"/><text fill="#000000" font-family="sans-serif" font-size="13" lengthAdjust="spacingAndGlyphs" textLength="94" x="52.5" y="113.0566">Merge changes</text><text fill="#000000" font-family="sans-serif" font-size="13" lengthAdjust="spacingAndGlyphs" textLength="13" x="52.5" y="128.3672">to</text><text fill="#000000" font-family="monospace" font-size="13" lengthAdjust="spacingAndGlyphs" textLength="48" x="69.5" y="128.0435">master</text><polygon fill="#A80036" points="302,189.041,312,193.041,302,197.041,306,193.041" style="stroke: #A80036; stroke-width: 1.0;"/><line style="stroke: #A80036; stroke-width: 1.0;" x1="183.5" x2="308" y1="193.041" y2="193.041"/><text fill="#000000" font-family="sans-serif" font-size="13" lengthAdjust="spacingAndGlyphs" textLength="98" x="190.5" y="157.6777">Notify Travis CI</text><text fill="#000000" font-family="sans-serif" font-size="13" lengthAdjust="spacingAndGlyphs" textLength="69" x="190.5" y="172.9883">of changes</text><text fill="#000000" font-family="sans-serif" font-size="13" lengthAdjust="spacingAndGlyphs" textLength="16" x="190.5" y="188.2988">on</text><text fill="#000000" font-family="monospace" font-size="13" lengthAdjust="spacingAndGlyphs" textLength="48" x="210.5" y="187.9751">master</text><polygon fill="#A80036" points="199.5,233.6621,189.5,237.6621,199.5,241.6621,195.5,237.6621" style="stroke: #A80036; stroke-width: 1.0;"/><line style="stroke: #A80036; stroke-width: 1.0;" x1="193.5" x2="313" y1="237.6621" y2="237.6621"/><text fill="#000000" font-family="sans-serif" font-size="13" lengthAdjust="spacingAndGlyphs" textLength="63" x="205.5" y="217.6094">Download</text><text fill="#000000" font-family="sans-serif" font-size="13" lengthAdjust="spacingAndGlyphs" textLength="80" x="205.5" y="232.9199">repo content</text><polygon fill="#A80036" points="302,278.2832,312,282.2832,302,286.2832,306,282.2832" style="stroke: #A80036; stroke-width: 1.0;"/><line style="stroke: #A80036; stroke-width: 1.0;" x1="183.5" x2="308" y1="282.2832" y2="282.2832"/><text fill="#000000" font-family="sans-serif" font-size="13" lengthAdjust="spacingAndGlyphs" textLength="44" x="190.5" y="262.2305">Upload</text><text fill="#000000" font-family="sans-serif" font-size="13" lengthAdjust="spacingAndGlyphs" textLength="80" x="190.5" y="277.541">repo content</text><path d="M284,295.2832 L284,350.2832 L350,350.2832 L350,305.2832 L340,295.2832 L284,295.2832 " fill="#FBFB77" filter="url(#fao8xy4tfvvtq)" style="stroke: #A80036; stroke-width: 1.0;"/><path d="M340,295.2832 L340,305.2832 L350,305.2832 L340,295.2832 " fill="#FBFB77" style="stroke: #A80036; stroke-width: 1.0;"/><text fill="#000000" font-family="sans-serif" font-size="13" lengthAdjust="spacingAndGlyphs" textLength="31" x="290" y="312.8516">Build</text><text fill="#000000" font-family="sans-serif" font-size="13" lengthAdjust="spacingAndGlyphs" textLength="45" x="290" y="328.1621">Docker</text><text fill="#000000" font-family="sans-serif" font-size="13" lengthAdjust="spacingAndGlyphs" textLength="38" x="290" y="343.4727">image</text><polygon fill="#A80036" points="418,392.8359,428,396.8359,418,400.8359,422,396.8359" style="stroke: #A80036; stroke-width: 1.0;"/><line style="stroke: #A80036; stroke-width: 1.0;" x1="324" x2="424" y1="396.8359" y2="396.8359"/><text fill="#000000" font-family="sans-serif" font-size="13" lengthAdjust="spacingAndGlyphs" textLength="44" x="331" y="376.7832">Upload</text><text fill="#000000" font-family="sans-serif" font-size="13" lengthAdjust="spacingAndGlyphs" textLength="87" x="331" y="392.0938">Docker image</text><polygon fill="#A80036" points="335,422.1465,325,426.1465,335,430.1465,331,426.1465" style="stroke: #A80036; stroke-width: 1.0;"/><line style="stroke: #A80036; stroke-width: 1.0;" x1="329" x2="434" y1="426.1465" y2="426.1465"/><text fill="#000000" font-family="sans-serif" font-size="13" lengthAdjust="spacingAndGlyphs" textLength="80" x="341" y="421.4043">Response ok</text><polygon fill="#A80036" points="194.5,466.7676,184.5,470.7676,194.5,474.7676,190.5,470.7676" style="stroke: #A80036; stroke-width: 1.0;"/><line style="stroke: #A80036; stroke-width: 1.0;" x1="188.5" x2="318" y1="470.7676" y2="470.7676"/><text fill="#000000" font-family="sans-serif" font-size="13" lengthAdjust="spacingAndGlyphs" textLength="87" x="200.5" y="450.7148">Notify GitHub</text><text fill="#000000" font-family="sans-serif" font-size="13" lengthAdjust="spacingAndGlyphs" textLength="67" x="200.5" y="466.0254">of success</text><polygon fill="#A80036" points="56.5,526.6992,46.5,530.6992,56.5,534.6992,52.5,530.6992" style="stroke: #A80036; stroke-width: 1.0;"/><line style="stroke: #A80036; stroke-width: 1.0;" x1="50.5" x2="182.5" y1="530.6992" y2="530.6992"/><text fill="#000000" font-family="sans-serif" font-size="13" lengthAdjust="spacingAndGlyphs" textLength="114" x="62.5" y="495.3359">Show green badge</text><text fill="#000000" font-family="sans-serif" font-size="13" lengthAdjust="spacingAndGlyphs" textLength="80" x="62.5" y="510.6465">so developer</text><text fill="#000000" font-family="sans-serif" font-size="13" lengthAdjust="spacingAndGlyphs" textLength="95" x="62.5" y="525.957">knows all is ok</text></g></svg>
