<?xml version="1.0" encoding="UTF-8" standalone="no"?><svg xmlns="http://www.w3.org/2000/svg" xmlns:xlink="http://www.w3.org/1999/xlink" contentScriptType="application/ecmascript" contentStyleType="text/css" height="823px" preserveAspectRatio="none" style="width:593px;height:823px;" version="1.1" viewBox="0 0 593 823" width="593px" zoomAndPan="magnify"><defs><filter height="300%" id="fw2tmj7ysobij" width="300%" x="-1" y="-1"><feGaussianBlur result="blurOut" stdDeviation="2.0"/><feColorMatrix in="blurOut" result="blurOut2" type="matrix" values="0 0 0 0 0 0 0 0 0 0 0 0 0 0 0 0 0 0 .4 0"/><feOffset dx="4.0" dy="4.0" in="blurOut2" result="blurOut3"/><feBlend in="SourceGraphic" in2="blurOut3" mode="normal"/></filter></defs><g><rect fill="#FFFFFF" filter="url(#fw2tmj7ysobij)" height="49.4072" style="stroke: #A80036; stroke-width: 1.0;" width="10" x="179" y="256.9907"/><rect fill="#FFFFFF" filter="url(#fw2tmj7ysobij)" height="440.665" style="stroke: #A80036; stroke-width: 1.0;" width="10" x="319" y="207.5835"/><rect fill="#FFFFFF" filter="url(#fw2tmj7ysobij)" height="49.4072" style="stroke: #A80036; stroke-width: 1.0;" width="10" x="435" y="355.8052"/><rect fill="#FFFFFF" filter="url(#fw2tmj7ysobij)" height="31.7036" style="stroke: #A80036; stroke-width: 1.0;" width="10" x="544.5" y="567.1377"/><line style="stroke: #A80036; stroke-width: 1.0; stroke-dasharray: 5.0,5.0;" x1="45" x2="45" y1="89.0654" y2="733.3594"/><line style="stroke: #A80036; stroke-width: 1.0; stroke-dasharray: 5.0,5.0;" x1="184" x2="184" y1="89.0654" y2="733.3594"/><line style="stroke: #A80036; stroke-width: 1.0; stroke-dasharray: 5.0,5.0;" x1="324" x2="324" y1="89.0654" y2="733.3594"/><line style="stroke: #A80036; stroke-width: 1.0; stroke-dasharray: 5.0,5.0;" x1="440" x2="440" y1="89.0654" y2="733.3594"/><line style="stroke: #A80036; stroke-width: 1.0; stroke-dasharray: 5.0,5.0;" x1="549" x2="549" y1="89.0654" y2="733.3594"/><text fill="#000000" font-family="sans-serif" font-size="14" lengthAdjust="spacingAndGlyphs" textLength="68" x="8" y="84.9639">Developer</text><ellipse cx="45" cy="13" fill="#FEFECE" filter="url(#fw2tmj7ysobij)" rx="8" ry="8" style="stroke: #A80036; stroke-width: 2.0;"/><path d="M45,21 L45,48 M32,29 L58,29 M45,48 L32,63 M45,48 L58,63 " fill="none" filter="url(#fw2tmj7ysobij)" style="stroke: #A80036; stroke-width: 2.0;"/><text fill="#000000" font-family="sans-serif" font-size="14" lengthAdjust="spacingAndGlyphs" textLength="68" x="8" y="747.3232">Developer</text><ellipse cx="45" cy="761.4248" fill="#FEFECE" filter="url(#fw2tmj7ysobij)" rx="8" ry="8" style="stroke: #A80036; stroke-width: 2.0;"/><path d="M45,769.4248 L45,796.4248 M32,777.4248 L58,777.4248 M45,796.4248 L32,811.4248 M45,796.4248 L58,811.4248 " fill="none" filter="url(#fw2tmj7ysobij)" style="stroke: #A80036; stroke-width: 2.0;"/><rect fill="#FEFECE" filter="url(#fw2tmj7ysobij)" height="52.1309" style="stroke: #A80036; stroke-width: 1.5;" width="180" x="92" y="31.9346"/><text fill="#000000" font-family="sans-serif" font-size="14" lengthAdjust="spacingAndGlyphs" textLength="47" x="158.5" y="53.8984">GitHub</text><text fill="#000000" font-family="sans-serif" font-size="14" lengthAdjust="spacingAndGlyphs" textLength="166" x="99" y="72.9639">hollowverse/hollowverse</text><rect fill="#FEFECE" filter="url(#fw2tmj7ysobij)" height="52.1309" style="stroke: #A80036; stroke-width: 1.5;" width="180" x="92" y="732.3594"/><text fill="#000000" font-family="sans-serif" font-size="14" lengthAdjust="spacingAndGlyphs" textLength="47" x="158.5" y="754.3232">GitHub</text><text fill="#000000" font-family="sans-serif" font-size="14" lengthAdjust="spacingAndGlyphs" textLength="166" x="99" y="773.3887">hollowverse/hollowverse</text><rect fill="#FEFECE" filter="url(#fw2tmj7ysobij)" height="33.0654" style="stroke: #A80036; stroke-width: 1.5;" width="72" x="286" y="51"/><text fill="#000000" font-family="sans-serif" font-size="14" lengthAdjust="spacingAndGlyphs" textLength="58" x="293" y="72.9639">Travis CI</text><rect fill="#FEFECE" filter="url(#fw2tmj7ysobij)" height="33.0654" style="stroke: #A80036; stroke-width: 1.5;" width="72" x="286" y="732.3594"/><text fill="#000000" font-family="sans-serif" font-size="14" lengthAdjust="spacingAndGlyphs" textLength="58" x="293" y="754.3232">Travis CI</text><rect fill="#FEFECE" filter="url(#fw2tmj7ysobij)" height="33.0654" style="stroke: #A80036; stroke-width: 1.5;" width="122" x="377" y="51"/><text fill="#000000" font-family="sans-serif" font-size="14" lengthAdjust="spacingAndGlyphs" textLength="108" x="384" y="72.9639">hub.docker.com</text><rect fill="#FEFECE" filter="url(#fw2tmj7ysobij)" height="33.0654" style="stroke: #A80036; stroke-width: 1.5;" width="122" x="377" y="732.3594"/><text fill="#000000" font-family="sans-serif" font-size="14" lengthAdjust="spacingAndGlyphs" textLength="108" x="384" y="754.3232">hub.docker.com</text><rect fill="#FEFECE" filter="url(#fw2tmj7ysobij)" height="71.1963" style="stroke: #A80036; stroke-width: 1.5;" width="69" x="513" y="12.8691"/><text fill="#000000" font-family="sans-serif" font-size="14" lengthAdjust="spacingAndGlyphs" textLength="54" x="520.5" y="34.833">Amazon</text><text fill="#000000" font-family="sans-serif" font-size="14" lengthAdjust="spacingAndGlyphs" textLength="30" x="532.5" y="53.8984">Web</text><text fill="#000000" font-family="sans-serif" font-size="14" lengthAdjust="spacingAndGlyphs" textLength="55" x="520" y="72.9639">Services</text><rect fill="#FEFECE" filter="url(#fw2tmj7ysobij)" height="71.1963" style="stroke: #A80036; stroke-width: 1.5;" width="69" x="513" y="732.3594"/><text fill="#000000" font-family="sans-serif" font-size="14" lengthAdjust="spacingAndGlyphs" textLength="54" x="520.5" y="754.3232">Amazon</text><text fill="#000000" font-family="sans-serif" font-size="14" lengthAdjust="spacingAndGlyphs" textLength="30" x="532.5" y="773.3887">Web</text><text fill="#000000" font-family="sans-serif" font-size="14" lengthAdjust="spacingAndGlyphs" textLength="55" x="520" y="792.4541">Services</text><rect fill="#FFFFFF" filter="url(#fw2tmj7ysobij)" height="49.4072" style="stroke: #A80036; stroke-width: 1.0;" width="10" x="179" y="256.9907"/><rect fill="#FFFFFF" filter="url(#fw2tmj7ysobij)" height="440.665" style="stroke: #A80036; stroke-width: 1.0;" width="10" x="319" y="207.5835"/><rect fill="#FFFFFF" filter="url(#fw2tmj7ysobij)" height="49.4072" style="stroke: #A80036; stroke-width: 1.0;" width="10" x="435" y="355.8052"/><rect fill="#FFFFFF" filter="url(#fw2tmj7ysobij)" height="31.7036" style="stroke: #A80036; stroke-width: 1.0;" width="10" x="544.5" y="567.1377"/><polygon fill="#A80036" points="172,136.4727,182,140.4727,172,144.4727,176,140.4727" style="stroke: #A80036; stroke-width: 1.0;"/><line style="stroke: #A80036; stroke-width: 1.0;" x1="45" x2="178" y1="140.4727" y2="140.4727"/><text fill="#000000" font-family="sans-serif" font-size="13" lengthAdjust="spacingAndGlyphs" textLength="92" x="52" y="116.9604">Merge changes</text><text fill="#000000" font-family="sans-serif" font-size="13" lengthAdjust="spacingAndGlyphs" textLength="13" x="52" y="134.6641">to</text><text fill="#000000" font-family="monospace" font-size="13" lengthAdjust="spacingAndGlyphs" textLength="48" x="68" y="135.4067">master</text><polygon fill="#A80036" points="307,203.5835,317,207.5835,307,211.5835,311,207.5835" style="stroke: #A80036; stroke-width: 1.0;"/><line style="stroke: #A80036; stroke-width: 1.0;" x1="184" x2="313" y1="207.5835" y2="207.5835"/><text fill="#000000" font-family="sans-serif" font-size="13" lengthAdjust="spacingAndGlyphs" textLength="90" x="191" y="166.3677">Notify Travis CI</text><text fill="#000000" font-family="sans-serif" font-size="13" lengthAdjust="spacingAndGlyphs" textLength="65" x="191" y="184.0713">of changes</text><text fill="#000000" font-family="sans-serif" font-size="13" lengthAdjust="spacingAndGlyphs" textLength="16" x="191" y="201.7749">on</text><text fill="#000000" font-family="monospace" font-size="13" lengthAdjust="spacingAndGlyphs" textLength="48" x="210" y="202.5176">master</text><polygon fill="#A80036" points="200,252.9907,190,256.9907,200,260.9907,196,256.9907" style="stroke: #A80036; stroke-width: 1.0;"/><line style="stroke: #A80036; stroke-width: 1.0;" x1="194" x2="318" y1="256.9907" y2="256.9907"/><text fill="#000000" font-family="sans-serif" font-size="13" lengthAdjust="spacingAndGlyphs" textLength="61" x="206" y="233.4785">Download</text><text fill="#000000" font-family="sans-serif" font-size="13" lengthAdjust="spacingAndGlyphs" textLength="78" x="206" y="251.1821">repo content</text><polygon fill="#A80036" points="307,302.3979,317,306.3979,307,310.3979,311,306.3979" style="stroke: #A80036; stroke-width: 1.0;"/><line style="stroke: #A80036; stroke-width: 1.0;" x1="184" x2="313" y1="306.3979" y2="306.3979"/><text fill="#000000" font-family="sans-serif" font-size="13" lengthAdjust="spacingAndGlyphs" textLength="44" x="191" y="282.8857">Upload</text><text fill="#000000" font-family="sans-serif" font-size="13" lengthAdjust="spacingAndGlyphs" textLength="78" x="191" y="300.5894">repo content</text><polygon fill="#A80036" points="423,351.8052,433,355.8052,423,359.8052,427,355.8052" style="stroke: #A80036; stroke-width: 1.0;"/><line style="stroke: #A80036; stroke-width: 1.0;" x1="329" x2="429" y1="355.8052" y2="355.8052"/><text fill="#000000" font-family="sans-serif" font-size="13" lengthAdjust="spacingAndGlyphs" textLength="61" x="336" y="332.293">Download</text><text fill="#000000" font-family="sans-serif" font-size="13" lengthAdjust="spacingAndGlyphs" textLength="82" x="336" y="349.9966">Docker image</text><polygon fill="#A80036" points="340,401.2124,330,405.2124,340,409.2124,336,405.2124" style="stroke: #A80036; stroke-width: 1.0;"/><line style="stroke: #A80036; stroke-width: 1.0;" x1="334" x2="439" y1="405.2124" y2="405.2124"/><text fill="#000000" font-family="sans-serif" font-size="13" lengthAdjust="spacingAndGlyphs" textLength="44" x="346" y="381.7002">Upload</text><text fill="#000000" font-family="sans-serif" font-size="13" lengthAdjust="spacingAndGlyphs" textLength="82" x="346" y="399.4038">Docker image</text><path d="M263,418.2124 L263,498.2124 L381,498.2124 L381,428.2124 L371,418.2124 L263,418.2124 " fill="#FBFB77" filter="url(#fw2tmj7ysobij)" style="stroke: #A80036; stroke-width: 1.0;"/><path d="M371,418.2124 L371,428.2124 L381,428.2124 L371,418.2124 " fill="#FBFB77" style="stroke: #A80036; stroke-width: 1.0;"/><text fill="#000000" font-family="sans-serif" font-size="13" lengthAdjust="spacingAndGlyphs" textLength="88" x="269" y="437.1074">Build code and</text><text fill="#000000" font-family="sans-serif" font-size="13" lengthAdjust="spacingAndGlyphs" textLength="97" x="269" y="454.811">run deployment</text><text fill="#000000" font-family="sans-serif" font-size="13" lengthAdjust="spacingAndGlyphs" textLength="80" x="269" y="472.5146">inside Docker</text><text fill="#000000" font-family="sans-serif" font-size="13" lengthAdjust="spacingAndGlyphs" textLength="57" x="269" y="490.2183">container</text><polygon fill="#A80036" points="532.5,563.1377,542.5,567.1377,532.5,571.1377,536.5,567.1377" style="stroke: #A80036; stroke-width: 1.0;"/><line style="stroke: #A80036; stroke-width: 1.0;" x1="329" x2="538.5" y1="567.1377" y2="567.1377"/><text fill="#000000" font-family="sans-serif" font-size="13" lengthAdjust="spacingAndGlyphs" textLength="128" x="336" y="525.9219">Serverless framework</text><text fill="#000000" font-family="sans-serif" font-size="13" lengthAdjust="spacingAndGlyphs" textLength="170" x="336" y="543.6255">configures AWS and uploads</text><text fill="#000000" font-family="sans-serif" font-size="13" lengthAdjust="spacingAndGlyphs" textLength="127" x="336" y="561.3291">build artifacts to AWS</text><polygon fill="#A80036" points="340,594.8413,330,598.8413,340,602.8413,336,598.8413" style="stroke: #A80036; stroke-width: 1.0;"/><line style="stroke: #A80036; stroke-width: 1.0;" x1="334" x2="548.5" y1="598.8413" y2="598.8413"/><text fill="#000000" font-family="sans-serif" font-size="13" lengthAdjust="spacingAndGlyphs" textLength="76" x="346" y="593.0327">Response ok</text><polygon fill="#A80036" points="195,644.2485,185,648.2485,195,652.2485,191,648.2485" style="stroke: #A80036; stroke-width: 1.0;"/><line style="stroke: #A80036; stroke-width: 1.0;" x1="189" x2="323" y1="648.2485" y2="648.2485"/><text fill="#000000" font-family="sans-serif" font-size="13" lengthAdjust="spacingAndGlyphs" textLength="83" x="201" y="624.7363">Notify GitHub</text><text fill="#000000" font-family="sans-serif" font-size="13" lengthAdjust="spacingAndGlyphs" textLength="60" x="201" y="642.4399">of success</text><polygon fill="#A80036" points="56,711.3594,46,715.3594,56,719.3594,52,715.3594" style="stroke: #A80036; stroke-width: 1.0;"/><line style="stroke: #A80036; stroke-width: 1.0;" x1="50" x2="183" y1="715.3594" y2="715.3594"/><text fill="#000000" font-family="sans-serif" font-size="13" lengthAdjust="spacingAndGlyphs" textLength="112" x="62" y="674.1436">Show green badge</text><text fill="#000000" font-family="sans-serif" font-size="13" lengthAdjust="spacingAndGlyphs" textLength="77" x="62" y="691.8472">so developer</text><text fill="#000000" font-family="sans-serif" font-size="13" lengthAdjust="spacingAndGlyphs" textLength="85" x="62" y="709.5508">knows all is ok</text></g></svg>
