<?xml version="1.0" encoding="UTF-8" standalone="no"?><svg xmlns="http://www.w3.org/2000/svg" xmlns:xlink="http://www.w3.org/1999/xlink" contentScriptType="application/ecmascript" contentStyleType="text/css" height="756px" preserveAspectRatio="none" style="width:608px;height:756px;" version="1.1" viewBox="0 0 608 756" width="608px" zoomAndPan="magnify"><defs><filter height="300%" id="fw2tmj7ysobij" width="300%" x="-1" y="-1"><feGaussianBlur result="blurOut" stdDeviation="2.0"/><feColorMatrix in="blurOut" result="blurOut2" type="matrix" values="0 0 0 0 0 0 0 0 0 0 0 0 0 0 0 0 0 0 .4 0"/><feOffset dx="4.0" dy="4.0" in="blurOut2" result="blurOut3"/><feBlend in="SourceGraphic" in2="blurOut3" mode="normal"/></filter></defs><g><rect fill="#FFFFFF" filter="url(#fw2tmj7ysobij)" height="44.6211" style="stroke: #A80036; stroke-width: 1.0;" width="10" x="182.5" y="237.6621"/><rect fill="#FFFFFF" filter="url(#fw2tmj7ysobij)" height="397.5898" style="stroke: #A80036; stroke-width: 1.0;" width="10" x="325.5" y="193.041"/><rect fill="#FFFFFF" filter="url(#fw2tmj7ysobij)" height="44.6211" style="stroke: #A80036; stroke-width: 1.0;" width="10" x="446.5" y="326.9043"/><rect fill="#FFFFFF" filter="url(#fw2tmj7ysobij)" height="29.3105" style="stroke: #A80036; stroke-width: 1.0;" width="10" x="558.5" y="516.6992"/><line style="stroke: #A80036; stroke-width: 1.0; stroke-dasharray: 5.0,5.0;" x1="45" x2="45" y1="86.4883" y2="668.5625"/><line style="stroke: #A80036; stroke-width: 1.0; stroke-dasharray: 5.0,5.0;" x1="187" x2="187" y1="86.4883" y2="668.5625"/><line style="stroke: #A80036; stroke-width: 1.0; stroke-dasharray: 5.0,5.0;" x1="330" x2="330" y1="86.4883" y2="668.5625"/><line style="stroke: #A80036; stroke-width: 1.0; stroke-dasharray: 5.0,5.0;" x1="451" x2="451" y1="86.4883" y2="668.5625"/><line style="stroke: #A80036; stroke-width: 1.0; stroke-dasharray: 5.0,5.0;" x1="563" x2="563" y1="86.4883" y2="668.5625"/><text fill="#000000" font-family="sans-serif" font-size="14" lengthAdjust="spacingAndGlyphs" textLength="69" x="8" y="83.5352">Developer</text><ellipse cx="45.5" cy="13" fill="#FEFECE" filter="url(#fw2tmj7ysobij)" rx="8" ry="8" style="stroke: #A80036; stroke-width: 2.0;"/><path d="M45.5,21 L45.5,48 M32.5,29 L58.5,29 M45.5,48 L32.5,63 M45.5,48 L58.5,63 " fill="none" filter="url(#fw2tmj7ysobij)" style="stroke: #A80036; stroke-width: 2.0;"/><text fill="#000000" font-family="sans-serif" font-size="14" lengthAdjust="spacingAndGlyphs" textLength="69" x="8" y="681.0977">Developer</text><ellipse cx="45.5" cy="694.0508" fill="#FEFECE" filter="url(#fw2tmj7ysobij)" rx="8" ry="8" style="stroke: #A80036; stroke-width: 2.0;"/><path d="M45.5,702.0508 L45.5,729.0508 M32.5,710.0508 L58.5,710.0508 M45.5,729.0508 L32.5,744.0508 M45.5,729.0508 L58.5,744.0508 " fill="none" filter="url(#fw2tmj7ysobij)" style="stroke: #A80036; stroke-width: 2.0;"/><rect fill="#FEFECE" filter="url(#fw2tmj7ysobij)" height="46.9766" style="stroke: #A80036; stroke-width: 1.5;" width="185" x="93" y="34.5117"/><text fill="#000000" font-family="sans-serif" font-size="14" lengthAdjust="spacingAndGlyphs" textLength="47" x="162" y="55.0469">GitHub</text><text fill="#000000" font-family="sans-serif" font-size="14" lengthAdjust="spacingAndGlyphs" textLength="171" x="100" y="71.5352">hollowverse/hollowverse</text><rect fill="#FEFECE" filter="url(#fw2tmj7ysobij)" height="46.9766" style="stroke: #A80036; stroke-width: 1.5;" width="185" x="93" y="667.5625"/><text fill="#000000" font-family="sans-serif" font-size="14" lengthAdjust="spacingAndGlyphs" textLength="47" x="162" y="688.0977">GitHub</text><text fill="#000000" font-family="sans-serif" font-size="14" lengthAdjust="spacingAndGlyphs" textLength="171" x="100" y="704.5859">hollowverse/hollowverse</text><rect fill="#FEFECE" filter="url(#fw2tmj7ysobij)" height="30.4883" style="stroke: #A80036; stroke-width: 1.5;" width="73" x="292" y="51"/><text fill="#000000" font-family="sans-serif" font-size="14" lengthAdjust="spacingAndGlyphs" textLength="59" x="299" y="71.5352">Travis CI</text><rect fill="#FEFECE" filter="url(#fw2tmj7ysobij)" height="30.4883" style="stroke: #A80036; stroke-width: 1.5;" width="73" x="292" y="667.5625"/><text fill="#000000" font-family="sans-serif" font-size="14" lengthAdjust="spacingAndGlyphs" textLength="59" x="299" y="688.0977">Travis CI</text><rect fill="#FEFECE" filter="url(#fw2tmj7ysobij)" height="30.4883" style="stroke: #A80036; stroke-width: 1.5;" width="125" x="387" y="51"/><text fill="#000000" font-family="sans-serif" font-size="14" lengthAdjust="spacingAndGlyphs" textLength="111" x="394" y="71.5352">hub.docker.com</text><rect fill="#FEFECE" filter="url(#fw2tmj7ysobij)" height="30.4883" style="stroke: #A80036; stroke-width: 1.5;" width="125" x="387" y="667.5625"/><text fill="#000000" font-family="sans-serif" font-size="14" lengthAdjust="spacingAndGlyphs" textLength="111" x="394" y="688.0977">hub.docker.com</text><rect fill="#FEFECE" filter="url(#fw2tmj7ysobij)" height="63.4648" style="stroke: #A80036; stroke-width: 1.5;" width="71" x="526" y="18.0234"/><text fill="#000000" font-family="sans-serif" font-size="14" lengthAdjust="spacingAndGlyphs" textLength="57" x="533" y="38.5586">Amazon</text><text fill="#000000" font-family="sans-serif" font-size="14" lengthAdjust="spacingAndGlyphs" textLength="29" x="547" y="55.0469">Web</text><text fill="#000000" font-family="sans-serif" font-size="14" lengthAdjust="spacingAndGlyphs" textLength="55" x="534" y="71.5352">Services</text><rect fill="#FEFECE" filter="url(#fw2tmj7ysobij)" height="63.4648" style="stroke: #A80036; stroke-width: 1.5;" width="71" x="526" y="667.5625"/><text fill="#000000" font-family="sans-serif" font-size="14" lengthAdjust="spacingAndGlyphs" textLength="57" x="533" y="688.0977">Amazon</text><text fill="#000000" font-family="sans-serif" font-size="14" lengthAdjust="spacingAndGlyphs" textLength="29" x="547" y="704.5859">Web</text><text fill="#000000" font-family="sans-serif" font-size="14" lengthAdjust="spacingAndGlyphs" textLength="55" x="534" y="721.0742">Services</text><rect fill="#FFFFFF" filter="url(#fw2tmj7ysobij)" height="44.6211" style="stroke: #A80036; stroke-width: 1.0;" width="10" x="182.5" y="237.6621"/><rect fill="#FFFFFF" filter="url(#fw2tmj7ysobij)" height="397.5898" style="stroke: #A80036; stroke-width: 1.0;" width="10" x="325.5" y="193.041"/><rect fill="#FFFFFF" filter="url(#fw2tmj7ysobij)" height="44.6211" style="stroke: #A80036; stroke-width: 1.0;" width="10" x="446.5" y="326.9043"/><rect fill="#FFFFFF" filter="url(#fw2tmj7ysobij)" height="29.3105" style="stroke: #A80036; stroke-width: 1.0;" width="10" x="558.5" y="516.6992"/><polygon fill="#A80036" points="175.5,129.1094,185.5,133.1094,175.5,137.1094,179.5,133.1094" style="stroke: #A80036; stroke-width: 1.0;"/><line style="stroke: #A80036; stroke-width: 1.0;" x1="45.5" x2="181.5" y1="133.1094" y2="133.1094"/><text fill="#000000" font-family="sans-serif" font-size="13" lengthAdjust="spacingAndGlyphs" textLength="94" x="52.5" y="113.0566">Merge changes</text><text fill="#000000" font-family="sans-serif" font-size="13" lengthAdjust="spacingAndGlyphs" textLength="13" x="52.5" y="128.3672">to</text><text fill="#000000" font-family="monospace" font-size="13" lengthAdjust="spacingAndGlyphs" textLength="48" x="69.5" y="128.0435">master</text><polygon fill="#A80036" points="313.5,189.041,323.5,193.041,313.5,197.041,317.5,193.041" style="stroke: #A80036; stroke-width: 1.0;"/><line style="stroke: #A80036; stroke-width: 1.0;" x1="187.5" x2="319.5" y1="193.041" y2="193.041"/><text fill="#000000" font-family="sans-serif" font-size="13" lengthAdjust="spacingAndGlyphs" textLength="98" x="194.5" y="157.6777">Notify Travis CI</text><text fill="#000000" font-family="sans-serif" font-size="13" lengthAdjust="spacingAndGlyphs" textLength="69" x="194.5" y="172.9883">of changes</text><text fill="#000000" font-family="sans-serif" font-size="13" lengthAdjust="spacingAndGlyphs" textLength="16" x="194.5" y="188.2988">on</text><text fill="#000000" font-family="monospace" font-size="13" lengthAdjust="spacingAndGlyphs" textLength="48" x="214.5" y="187.9751">master</text><polygon fill="#A80036" points="203.5,233.6621,193.5,237.6621,203.5,241.6621,199.5,237.6621" style="stroke: #A80036; stroke-width: 1.0;"/><line style="stroke: #A80036; stroke-width: 1.0;" x1="197.5" x2="324.5" y1="237.6621" y2="237.6621"/><text fill="#000000" font-family="sans-serif" font-size="13" lengthAdjust="spacingAndGlyphs" textLength="63" x="209.5" y="217.6094">Download</text><text fill="#000000" font-family="sans-serif" font-size="13" lengthAdjust="spacingAndGlyphs" textLength="80" x="209.5" y="232.9199">repo content</text><polygon fill="#A80036" points="313.5,278.2832,323.5,282.2832,313.5,286.2832,317.5,282.2832" style="stroke: #A80036; stroke-width: 1.0;"/><line style="stroke: #A80036; stroke-width: 1.0;" x1="187.5" x2="319.5" y1="282.2832" y2="282.2832"/><text fill="#000000" font-family="sans-serif" font-size="13" lengthAdjust="spacingAndGlyphs" textLength="44" x="194.5" y="262.2305">Upload</text><text fill="#000000" font-family="sans-serif" font-size="13" lengthAdjust="spacingAndGlyphs" textLength="80" x="194.5" y="277.541">repo content</text><polygon fill="#A80036" points="434.5,322.9043,444.5,326.9043,434.5,330.9043,438.5,326.9043" style="stroke: #A80036; stroke-width: 1.0;"/><line style="stroke: #A80036; stroke-width: 1.0;" x1="335.5" x2="440.5" y1="326.9043" y2="326.9043"/><text fill="#000000" font-family="sans-serif" font-size="13" lengthAdjust="spacingAndGlyphs" textLength="63" x="342.5" y="306.8516">Download</text><text fill="#000000" font-family="sans-serif" font-size="13" lengthAdjust="spacingAndGlyphs" textLength="87" x="342.5" y="322.1621">Docker image</text><polygon fill="#A80036" points="346.5,367.5254,336.5,371.5254,346.5,375.5254,342.5,371.5254" style="stroke: #A80036; stroke-width: 1.0;"/><line style="stroke: #A80036; stroke-width: 1.0;" x1="340.5" x2="450.5" y1="371.5254" y2="371.5254"/><text fill="#000000" font-family="sans-serif" font-size="13" lengthAdjust="spacingAndGlyphs" textLength="44" x="352.5" y="351.4727">Upload</text><text fill="#000000" font-family="sans-serif" font-size="13" lengthAdjust="spacingAndGlyphs" textLength="87" x="352.5" y="366.7832">Docker image</text><path d="M268,384.5254 L268,455.5254 L388,455.5254 L388,394.5254 L378,384.5254 L268,384.5254 " fill="#FBFB77" filter="url(#fw2tmj7ysobij)" style="stroke: #A80036; stroke-width: 1.0;"/><path d="M378,384.5254 L378,394.5254 L388,394.5254 L378,384.5254 " fill="#FBFB77" style="stroke: #A80036; stroke-width: 1.0;"/><text fill="#000000" font-family="sans-serif" font-size="13" lengthAdjust="spacingAndGlyphs" textLength="92" x="274" y="402.0938">Build code and</text><text fill="#000000" font-family="sans-serif" font-size="13" lengthAdjust="spacingAndGlyphs" textLength="99" x="274" y="417.4043">run deployment</text><text fill="#000000" font-family="sans-serif" font-size="13" lengthAdjust="spacingAndGlyphs" textLength="87" x="274" y="432.7148">inside Docker</text><text fill="#000000" font-family="sans-serif" font-size="13" lengthAdjust="spacingAndGlyphs" textLength="59" x="274" y="448.0254">container</text><polygon fill="#A80036" points="546.5,512.6992,556.5,516.6992,546.5,520.6992,550.5,516.6992" style="stroke: #A80036; stroke-width: 1.0;"/><line style="stroke: #A80036; stroke-width: 1.0;" x1="335.5" x2="552.5" y1="516.6992" y2="516.6992"/><text fill="#000000" font-family="sans-serif" font-size="13" lengthAdjust="spacingAndGlyphs" textLength="134" x="342.5" y="481.3359">Serverless framework</text><text fill="#000000" font-family="sans-serif" font-size="13" lengthAdjust="spacingAndGlyphs" textLength="179" x="342.5" y="496.6465">configures AWS and uploads</text><text fill="#000000" font-family="sans-serif" font-size="13" lengthAdjust="spacingAndGlyphs" textLength="136" x="342.5" y="511.957">build artifacts to AWS</text><polygon fill="#A80036" points="346.5,542.0098,336.5,546.0098,346.5,550.0098,342.5,546.0098" style="stroke: #A80036; stroke-width: 1.0;"/><line style="stroke: #A80036; stroke-width: 1.0;" x1="340.5" x2="562.5" y1="546.0098" y2="546.0098"/><text fill="#000000" font-family="sans-serif" font-size="13" lengthAdjust="spacingAndGlyphs" textLength="80" x="352.5" y="541.2676">Response ok</text><polygon fill="#A80036" points="198.5,586.6309,188.5,590.6309,198.5,594.6309,194.5,590.6309" style="stroke: #A80036; stroke-width: 1.0;"/><line style="stroke: #A80036; stroke-width: 1.0;" x1="192.5" x2="329.5" y1="590.6309" y2="590.6309"/><text fill="#000000" font-family="sans-serif" font-size="13" lengthAdjust="spacingAndGlyphs" textLength="87" x="204.5" y="570.5781">Notify GitHub</text><text fill="#000000" font-family="sans-serif" font-size="13" lengthAdjust="spacingAndGlyphs" textLength="67" x="204.5" y="585.8887">of success</text><polygon fill="#A80036" points="56.5,646.5625,46.5,650.5625,56.5,654.5625,52.5,650.5625" style="stroke: #A80036; stroke-width: 1.0;"/><line style="stroke: #A80036; stroke-width: 1.0;" x1="50.5" x2="186.5" y1="650.5625" y2="650.5625"/><text fill="#000000" font-family="sans-serif" font-size="13" lengthAdjust="spacingAndGlyphs" textLength="114" x="62.5" y="615.1992">Show green badge</text><text fill="#000000" font-family="sans-serif" font-size="13" lengthAdjust="spacingAndGlyphs" textLength="80" x="62.5" y="630.5098">so developer</text><text fill="#000000" font-family="sans-serif" font-size="13" lengthAdjust="spacingAndGlyphs" textLength="95" x="62.5" y="645.8203">knows all is ok</text></g></svg>
