<?xml version="1.0" encoding="UTF-8" standalone="no"?><svg xmlns="http://www.w3.org/2000/svg" xmlns:xlink="http://www.w3.org/1999/xlink" contentScriptType="application/ecmascript" contentStyleType="text/css" height="689px" preserveAspectRatio="none" style="width:494px;height:689px;" version="1.1" viewBox="0 0 494 689" width="494px" zoomAndPan="magnify"><defs><filter height="300%" id="fao8xy4tfvvtq" width="300%" x="-1" y="-1"><feGaussianBlur result="blurOut" stdDeviation="2.0"/><feColorMatrix in="blurOut" result="blurOut2" type="matrix" values="0 0 0 0 0 0 0 0 0 0 0 0 0 0 0 0 0 0 .4 0"/><feOffset dx="4.0" dy="4.0" in="blurOut2" result="blurOut3"/><feBlend in="SourceGraphic" in2="blurOut3" mode="normal"/></filter></defs><g><rect fill="#FFFFFF" filter="url(#fao8xy4tfvvtq)" height="49.4072" style="stroke: #A80036; stroke-width: 1.0;" width="10" x="176" y="256.9907"/><rect fill="#FFFFFF" filter="url(#fao8xy4tfvvtq)" height="306.4434" style="stroke: #A80036; stroke-width: 1.0;" width="10" x="308" y="207.5835"/><rect fill="#FFFFFF" filter="url(#fao8xy4tfvvtq)" height="31.7036" style="stroke: #A80036; stroke-width: 1.0;" width="10" x="419" y="432.916"/><line style="stroke: #A80036; stroke-width: 1.0; stroke-dasharray: 5.0,5.0;" x1="45" x2="45" y1="89.0654" y2="599.1377"/><line style="stroke: #A80036; stroke-width: 1.0; stroke-dasharray: 5.0,5.0;" x1="181" x2="181" y1="89.0654" y2="599.1377"/><line style="stroke: #A80036; stroke-width: 1.0; stroke-dasharray: 5.0,5.0;" x1="313" x2="313" y1="89.0654" y2="599.1377"/><line style="stroke: #A80036; stroke-width: 1.0; stroke-dasharray: 5.0,5.0;" x1="424" x2="424" y1="89.0654" y2="599.1377"/><text fill="#000000" font-family="sans-serif" font-size="14" lengthAdjust="spacingAndGlyphs" textLength="68" x="8" y="84.9639">Developer</text><ellipse cx="45" cy="13" fill="#FEFECE" filter="url(#fao8xy4tfvvtq)" rx="8" ry="8" style="stroke: #A80036; stroke-width: 2.0;"/><path d="M45,21 L45,48 M32,29 L58,29 M45,48 L32,63 M45,48 L58,63 " fill="none" filter="url(#fao8xy4tfvvtq)" style="stroke: #A80036; stroke-width: 2.0;"/><text fill="#000000" font-family="sans-serif" font-size="14" lengthAdjust="spacingAndGlyphs" textLength="68" x="8" y="613.1016">Developer</text><ellipse cx="45" cy="627.2031" fill="#FEFECE" filter="url(#fao8xy4tfvvtq)" rx="8" ry="8" style="stroke: #A80036; stroke-width: 2.0;"/><path d="M45,635.2031 L45,662.2031 M32,643.2031 L58,643.2031 M45,662.2031 L32,677.2031 M45,662.2031 L58,677.2031 " fill="none" filter="url(#fao8xy4tfvvtq)" style="stroke: #A80036; stroke-width: 2.0;"/><rect fill="#FEFECE" filter="url(#fao8xy4tfvvtq)" height="52.1309" style="stroke: #A80036; stroke-width: 1.5;" width="164" x="97" y="31.9346"/><text fill="#000000" font-family="sans-serif" font-size="14" lengthAdjust="spacingAndGlyphs" textLength="47" x="155.5" y="53.8984">GitHub</text><text fill="#000000" font-family="sans-serif" font-size="14" lengthAdjust="spacingAndGlyphs" textLength="150" x="104" y="72.9639">hollowverse/build-env</text><rect fill="#FEFECE" filter="url(#fao8xy4tfvvtq)" height="52.1309" style="stroke: #A80036; stroke-width: 1.5;" width="164" x="97" y="598.1377"/><text fill="#000000" font-family="sans-serif" font-size="14" lengthAdjust="spacingAndGlyphs" textLength="47" x="155.5" y="620.1016">GitHub</text><text fill="#000000" font-family="sans-serif" font-size="14" lengthAdjust="spacingAndGlyphs" textLength="150" x="104" y="639.167">hollowverse/build-env</text><rect fill="#FEFECE" filter="url(#fao8xy4tfvvtq)" height="33.0654" style="stroke: #A80036; stroke-width: 1.5;" width="72" x="275" y="51"/><text fill="#000000" font-family="sans-serif" font-size="14" lengthAdjust="spacingAndGlyphs" textLength="58" x="282" y="72.9639">Travis CI</text><rect fill="#FEFECE" filter="url(#fao8xy4tfvvtq)" height="33.0654" style="stroke: #A80036; stroke-width: 1.5;" width="72" x="275" y="598.1377"/><text fill="#000000" font-family="sans-serif" font-size="14" lengthAdjust="spacingAndGlyphs" textLength="58" x="282" y="620.1016">Travis CI</text><rect fill="#FEFECE" filter="url(#fao8xy4tfvvtq)" height="33.0654" style="stroke: #A80036; stroke-width: 1.5;" width="122" x="361" y="51"/><text fill="#000000" font-family="sans-serif" font-size="14" lengthAdjust="spacingAndGlyphs" textLength="108" x="368" y="72.9639">hub.docker.com</text><rect fill="#FEFECE" filter="url(#fao8xy4tfvvtq)" height="33.0654" style="stroke: #A80036; stroke-width: 1.5;" width="122" x="361" y="598.1377"/><text fill="#000000" font-family="sans-serif" font-size="14" lengthAdjust="spacingAndGlyphs" textLength="108" x="368" y="620.1016">hub.docker.com</text><rect fill="#FFFFFF" filter="url(#fao8xy4tfvvtq)" height="49.4072" style="stroke: #A80036; stroke-width: 1.0;" width="10" x="176" y="256.9907"/><rect fill="#FFFFFF" filter="url(#fao8xy4tfvvtq)" height="306.4434" style="stroke: #A80036; stroke-width: 1.0;" width="10" x="308" y="207.5835"/><rect fill="#FFFFFF" filter="url(#fao8xy4tfvvtq)" height="31.7036" style="stroke: #A80036; stroke-width: 1.0;" width="10" x="419" y="432.916"/><polygon fill="#A80036" points="169,136.4727,179,140.4727,169,144.4727,173,140.4727" style="stroke: #A80036; stroke-width: 1.0;"/><line style="stroke: #A80036; stroke-width: 1.0;" x1="45" x2="175" y1="140.4727" y2="140.4727"/><text fill="#000000" font-family="sans-serif" font-size="13" lengthAdjust="spacingAndGlyphs" textLength="92" x="52" y="116.9604">Merge changes</text><text fill="#000000" font-family="sans-serif" font-size="13" lengthAdjust="spacingAndGlyphs" textLength="13" x="52" y="134.6641">to</text><text fill="#000000" font-family="monospace" font-size="13" lengthAdjust="spacingAndGlyphs" textLength="48" x="68" y="135.4067">master</text><polygon fill="#A80036" points="296,203.5835,306,207.5835,296,211.5835,300,207.5835" style="stroke: #A80036; stroke-width: 1.0;"/><line style="stroke: #A80036; stroke-width: 1.0;" x1="181" x2="302" y1="207.5835" y2="207.5835"/><text fill="#000000" font-family="sans-serif" font-size="13" lengthAdjust="spacingAndGlyphs" textLength="90" x="188" y="166.3677">Notify Travis CI</text><text fill="#000000" font-family="sans-serif" font-size="13" lengthAdjust="spacingAndGlyphs" textLength="65" x="188" y="184.0713">of changes</text><text fill="#000000" font-family="sans-serif" font-size="13" lengthAdjust="spacingAndGlyphs" textLength="16" x="188" y="201.7749">on</text><text fill="#000000" font-family="monospace" font-size="13" lengthAdjust="spacingAndGlyphs" textLength="48" x="207" y="202.5176">master</text><polygon fill="#A80036" points="197,252.9907,187,256.9907,197,260.9907,193,256.9907" style="stroke: #A80036; stroke-width: 1.0;"/><line style="stroke: #A80036; stroke-width: 1.0;" x1="191" x2="307" y1="256.9907" y2="256.9907"/><text fill="#000000" font-family="sans-serif" font-size="13" lengthAdjust="spacingAndGlyphs" textLength="61" x="203" y="233.4785">Download</text><text fill="#000000" font-family="sans-serif" font-size="13" lengthAdjust="spacingAndGlyphs" textLength="78" x="203" y="251.1821">repo content</text><polygon fill="#A80036" points="296,302.3979,306,306.3979,296,310.3979,300,306.3979" style="stroke: #A80036; stroke-width: 1.0;"/><line style="stroke: #A80036; stroke-width: 1.0;" x1="181" x2="302" y1="306.3979" y2="306.3979"/><text fill="#000000" font-family="sans-serif" font-size="13" lengthAdjust="spacingAndGlyphs" textLength="44" x="188" y="282.8857">Upload</text><text fill="#000000" font-family="sans-serif" font-size="13" lengthAdjust="spacingAndGlyphs" textLength="78" x="188" y="300.5894">repo content</text><path d="M279,319.3979 L279,382.3979 L342,382.3979 L342,329.3979 L332,319.3979 L279,319.3979 " fill="#FBFB77" filter="url(#fao8xy4tfvvtq)" style="stroke: #A80036; stroke-width: 1.0;"/><path d="M332,319.3979 L332,329.3979 L342,329.3979 L332,319.3979 " fill="#FBFB77" style="stroke: #A80036; stroke-width: 1.0;"/><text fill="#000000" font-family="sans-serif" font-size="13" lengthAdjust="spacingAndGlyphs" textLength="30" x="285" y="338.293">Build</text><text fill="#000000" font-family="sans-serif" font-size="13" lengthAdjust="spacingAndGlyphs" textLength="42" x="285" y="355.9966">Docker</text><text fill="#000000" font-family="sans-serif" font-size="13" lengthAdjust="spacingAndGlyphs" textLength="37" x="285" y="373.7002">image</text><polygon fill="#A80036" points="407,428.916,417,432.916,407,436.916,411,432.916" style="stroke: #A80036; stroke-width: 1.0;"/><line style="stroke: #A80036; stroke-width: 1.0;" x1="318" x2="413" y1="432.916" y2="432.916"/><text fill="#000000" font-family="sans-serif" font-size="13" lengthAdjust="spacingAndGlyphs" textLength="44" x="325" y="409.4038">Upload</text><text fill="#000000" font-family="sans-serif" font-size="13" lengthAdjust="spacingAndGlyphs" textLength="82" x="325" y="427.1074">Docker image</text><polygon fill="#A80036" points="329,460.6196,319,464.6196,329,468.6196,325,464.6196" style="stroke: #A80036; stroke-width: 1.0;"/><line style="stroke: #A80036; stroke-width: 1.0;" x1="323" x2="423" y1="464.6196" y2="464.6196"/><text fill="#000000" font-family="sans-serif" font-size="13" lengthAdjust="spacingAndGlyphs" textLength="76" x="335" y="458.811">Response ok</text><polygon fill="#A80036" points="192,510.0269,182,514.0269,192,518.0269,188,514.0269" style="stroke: #A80036; stroke-width: 1.0;"/><line style="stroke: #A80036; stroke-width: 1.0;" x1="186" x2="312" y1="514.0269" y2="514.0269"/><text fill="#000000" font-family="sans-serif" font-size="13" lengthAdjust="spacingAndGlyphs" textLength="83" x="198" y="490.5146">Notify GitHub</text><text fill="#000000" font-family="sans-serif" font-size="13" lengthAdjust="spacingAndGlyphs" textLength="60" x="198" y="508.2183">of success</text><polygon fill="#A80036" points="56,577.1377,46,581.1377,56,585.1377,52,581.1377" style="stroke: #A80036; stroke-width: 1.0;"/><line style="stroke: #A80036; stroke-width: 1.0;" x1="50" x2="180" y1="581.1377" y2="581.1377"/><text fill="#000000" font-family="sans-serif" font-size="13" lengthAdjust="spacingAndGlyphs" textLength="112" x="62" y="539.9219">Show green badge</text><text fill="#000000" font-family="sans-serif" font-size="13" lengthAdjust="spacingAndGlyphs" textLength="77" x="62" y="557.6255">so developer</text><text fill="#000000" font-family="sans-serif" font-size="13" lengthAdjust="spacingAndGlyphs" textLength="85" x="62" y="575.3291">knows all is ok</text></g></svg>
