<?xml version="1.0" encoding="UTF-8" standalone="no"?><svg xmlns="http://www.w3.org/2000/svg" xmlns:xlink="http://www.w3.org/1999/xlink" contentScriptType="application/ecmascript" contentStyleType="text/css" height="710px" preserveAspectRatio="none" style="width:396px;height:710px;" version="1.1" viewBox="0 0 396 710" width="396px" zoomAndPan="magnify"><defs><filter height="300%" id="fv11g3ahi7ppo" width="300%" x="-1" y="-1"><feGaussianBlur result="blurOut" stdDeviation="2.0"/><feColorMatrix in="blurOut" result="blurOut2" type="matrix" values="0 0 0 0 0 0 0 0 0 0 0 0 0 0 0 0 0 0 .4 0"/><feOffset dx="4.0" dy="4.0" in="blurOut2" result="blurOut3"/><feBlend in="SourceGraphic" in2="blurOut3" mode="normal"/></filter></defs><g><rect fill="#FEFECE" filter="url(#fv11g3ahi7ppo)" height="36.3418" rx="12.5" ry="12.5" style="stroke: #A80036; stroke-width: 1.5;" width="65" x="144.5" y="10"/><text fill="#000000" font-family="sans-serif" font-size="12" lengthAdjust="spacingAndGlyphs" textLength="45" x="154.5" y="32.8262">Request</text><rect fill="#FEFECE" filter="url(#fv11g3ahi7ppo)" height="85.3672" rx="12.5" ry="12.5" style="stroke: #A80036; stroke-width: 1.5;" width="252" x="51" y="66.3418"/><text fill="#000000" font-family="sans-serif" font-size="12" lengthAdjust="spacingAndGlyphs" textLength="37" x="61" y="89.168">Assign</text><text fill="#000000" font-family="monospace" font-size="12" lengthAdjust="spacingAndGlyphs" textLength="28" x="101" y="89.8535">beta</text><text fill="#000000" font-family="sans-serif" font-size="12" lengthAdjust="spacingAndGlyphs" textLength="3" x="129" y="89.168">,</text><text fill="#000000" font-family="monospace" font-size="12" lengthAdjust="spacingAndGlyphs" textLength="42" x="135" y="89.8535">master</text><text fill="#000000" font-family="sans-serif" font-size="12" lengthAdjust="spacingAndGlyphs" textLength="51" x="177" y="89.168">, or other</text><text fill="#000000" font-family="sans-serif" font-size="12" lengthAdjust="spacingAndGlyphs" textLength="131" x="61" y="105.5098">environment to request</text><text fill="#000000" font-family="sans-serif" font-size="12" lengthAdjust="spacingAndGlyphs" textLength="0" x="64" y="121.8516"/><text fill="#000000" font-family="sans-serif" font-size="12" lengthAdjust="spacingAndGlyphs" textLength="4" x="61" y="138.1934">(</text><text fill="#000000" font-family="monospace" font-size="12" lengthAdjust="spacingAndGlyphs" textLength="224" x="65" y="138.8789">assignEnvironmentToViewerRequest</text><text fill="#000000" font-family="sans-serif" font-size="12" lengthAdjust="spacingAndGlyphs" textLength="4" x="289" y="138.1934">)</text><polygon fill="#FEFECE" filter="url(#fv11g3ahi7ppo)" points="96,171.709,258,171.709,270,186.689,258,201.6689,96,201.6689,84,186.689,96,171.709" style="stroke: #A80036; stroke-width: 1.5;"/><text fill="#000000" font-family="sans-serif" font-size="11" lengthAdjust="spacingAndGlyphs" textLength="98" x="96" y="183.4663">is response cached</text><text fill="#000000" font-family="sans-serif" font-size="11" lengthAdjust="spacingAndGlyphs" textLength="162" x="96" y="198.4463">for the assigned environment?</text><text fill="#000000" font-family="sans-serif" font-size="11" lengthAdjust="spacingAndGlyphs" textLength="17" x="67" y="183.4663">Yes</text><text fill="#000000" font-family="sans-serif" font-size="11" lengthAdjust="spacingAndGlyphs" textLength="15" x="270" y="183.4663">No</text><rect fill="#FEFECE" filter="url(#fv11g3ahi7ppo)" height="36.3418" rx="12.5" ry="12.5" style="stroke: #A80036; stroke-width: 1.5;" width="128" x="10" y="211.6689"/><text fill="#000000" font-family="sans-serif" font-size="12" lengthAdjust="spacingAndGlyphs" textLength="108" x="20" y="234.4951">Get cached content</text><rect fill="#FEFECE" filter="url(#fv11g3ahi7ppo)" height="101.709" rx="12.5" ry="12.5" style="stroke: #A80036; stroke-width: 1.5;" width="168" x="196" y="211.6689"/><text fill="#000000" font-family="sans-serif" font-size="12" lengthAdjust="spacingAndGlyphs" textLength="120" x="206" y="234.4951">Determine the server</text><text fill="#000000" font-family="sans-serif" font-size="12" lengthAdjust="spacingAndGlyphs" textLength="90" x="206" y="250.8369">for the assigned</text><text fill="#000000" font-family="sans-serif" font-size="12" lengthAdjust="spacingAndGlyphs" textLength="71" x="206" y="267.1787">environment</text><text fill="#000000" font-family="sans-serif" font-size="12" lengthAdjust="spacingAndGlyphs" textLength="0" x="209" y="283.5205"/><text fill="#000000" font-family="sans-serif" font-size="12" lengthAdjust="spacingAndGlyphs" textLength="4" x="206" y="299.8623">(</text><text fill="#000000" font-family="monospace" font-size="12" lengthAdjust="spacingAndGlyphs" textLength="140" x="210" y="300.5479">routeRequestToOrigin</text><text fill="#000000" font-family="sans-serif" font-size="12" lengthAdjust="spacingAndGlyphs" textLength="4" x="350" y="299.8623">)</text><rect fill="#FEFECE" filter="url(#fv11g3ahi7ppo)" height="101.709" rx="12.5" ry="12.5" style="stroke: #A80036; stroke-width: 1.5;" width="194" x="183" y="333.3779"/><text fill="#000000" font-family="sans-serif" font-size="12" lengthAdjust="spacingAndGlyphs" textLength="174" x="193" y="356.2041">Retrieve content from assigned</text><text fill="#000000" font-family="sans-serif" font-size="12" lengthAdjust="spacingAndGlyphs" textLength="71" x="193" y="372.5459">environment</text><text fill="#000000" font-family="sans-serif" font-size="12" lengthAdjust="spacingAndGlyphs" textLength="0" x="196" y="388.8877"/><text fill="#000000" font-family="monospace" font-size="12" lengthAdjust="spacingAndGlyphs" textLength="28" x="193" y="405.915">beta</text><text fill="#000000" font-family="sans-serif" font-size="12" lengthAdjust="spacingAndGlyphs" textLength="3" x="221" y="405.2295">,</text><text fill="#000000" font-family="monospace" font-size="12" lengthAdjust="spacingAndGlyphs" textLength="42" x="227" y="405.915">master</text><text fill="#000000" font-family="sans-serif" font-size="12" lengthAdjust="spacingAndGlyphs" textLength="74" x="269" y="405.2295">, or any other</text><text fill="#000000" font-family="sans-serif" font-size="12" lengthAdjust="spacingAndGlyphs" textLength="71" x="193" y="421.5713">environment</text><rect fill="#FEFECE" filter="url(#fv11g3ahi7ppo)" height="85.3672" rx="12.5" ry="12.5" style="stroke: #A80036; stroke-width: 1.5;" width="210" x="175" y="455.0869"/><text fill="#000000" font-family="sans-serif" font-size="12" lengthAdjust="spacingAndGlyphs" textLength="139" x="185" y="477.9131">Set headers on response</text><text fill="#000000" font-family="sans-serif" font-size="12" lengthAdjust="spacingAndGlyphs" textLength="123" x="185" y="494.2549">before sending it back</text><text fill="#000000" font-family="sans-serif" font-size="12" lengthAdjust="spacingAndGlyphs" textLength="0" x="188" y="510.5967"/><text fill="#000000" font-family="sans-serif" font-size="12" lengthAdjust="spacingAndGlyphs" textLength="4" x="185" y="526.9385">(</text><text fill="#000000" font-family="monospace" font-size="12" lengthAdjust="spacingAndGlyphs" textLength="182" x="189" y="527.624">setHeadersOnOriginResponse</text><text fill="#000000" font-family="sans-serif" font-size="12" lengthAdjust="spacingAndGlyphs" textLength="4" x="371" y="526.9385">)</text><rect fill="#FEFECE" filter="url(#fv11g3ahi7ppo)" height="52.6836" rx="12.5" ry="12.5" style="stroke: #A80036; stroke-width: 1.5;" width="156" x="202" y="560.4541"/><text fill="#000000" font-family="sans-serif" font-size="12" lengthAdjust="spacingAndGlyphs" textLength="117" x="212" y="583.2803">Add content to cahce</text><text fill="#000000" font-family="sans-serif" font-size="12" lengthAdjust="spacingAndGlyphs" textLength="136" x="212" y="599.6221">for subsequent requests</text><polygon fill="#FEFECE" filter="url(#fv11g3ahi7ppo)" points="177,619.1377,189,631.1377,177,643.1377,165,631.1377,177,619.1377" style="stroke: #A80036; stroke-width: 1.5;"/><rect fill="#FEFECE" filter="url(#fv11g3ahi7ppo)" height="36.3418" rx="12.5" ry="12.5" style="stroke: #A80036; stroke-width: 1.5;" width="74" x="140" y="663.1377"/><text fill="#000000" font-family="sans-serif" font-size="12" lengthAdjust="spacingAndGlyphs" textLength="54" x="150" y="685.9639">Response</text><line style="stroke: #A80036; stroke-width: 1.5;" x1="177" x2="177" y1="46.3418" y2="66.3418"/><polygon fill="#A80036" points="173,56.3418,177,66.3418,181,56.3418,177,60.3418" style="stroke: #A80036; stroke-width: 1.0;"/><line style="stroke: #A80036; stroke-width: 1.5;" x1="280" x2="280" y1="313.3779" y2="333.3779"/><polygon fill="#A80036" points="276,323.3779,280,333.3779,284,323.3779,280,327.3779" style="stroke: #A80036; stroke-width: 1.0;"/><line style="stroke: #A80036; stroke-width: 1.5;" x1="280" x2="280" y1="435.0869" y2="455.0869"/><polygon fill="#A80036" points="276,445.0869,280,455.0869,284,445.0869,280,449.0869" style="stroke: #A80036; stroke-width: 1.0;"/><line style="stroke: #A80036; stroke-width: 1.5;" x1="280" x2="280" y1="540.4541" y2="560.4541"/><polygon fill="#A80036" points="276,550.4541,280,560.4541,284,550.4541,280,554.4541" style="stroke: #A80036; stroke-width: 1.0;"/><line style="stroke: #A80036; stroke-width: 1.5;" x1="84" x2="74" y1="186.689" y2="186.689"/><line style="stroke: #A80036; stroke-width: 1.5;" x1="74" x2="74" y1="186.689" y2="211.6689"/><polygon fill="#A80036" points="70,201.6689,74,211.6689,78,201.6689,74,205.6689" style="stroke: #A80036; stroke-width: 1.0;"/><line style="stroke: #A80036; stroke-width: 1.5;" x1="270" x2="280" y1="186.689" y2="186.689"/><line style="stroke: #A80036; stroke-width: 1.5;" x1="280" x2="280" y1="186.689" y2="211.6689"/><polygon fill="#A80036" points="276,201.6689,280,211.6689,284,201.6689,280,205.6689" style="stroke: #A80036; stroke-width: 1.0;"/><line style="stroke: #A80036; stroke-width: 1.5;" x1="74" x2="74" y1="248.0107" y2="631.1377"/><line style="stroke: #A80036; stroke-width: 1.5;" x1="74" x2="165" y1="631.1377" y2="631.1377"/><polygon fill="#A80036" points="155,627.1377,165,631.1377,155,635.1377,159,631.1377" style="stroke: #A80036; stroke-width: 1.0;"/><line style="stroke: #A80036; stroke-width: 1.5;" x1="280" x2="280" y1="613.1377" y2="631.1377"/><line style="stroke: #A80036; stroke-width: 1.5;" x1="280" x2="189" y1="631.1377" y2="631.1377"/><polygon fill="#A80036" points="199,627.1377,189,631.1377,199,635.1377,195,631.1377" style="stroke: #A80036; stroke-width: 1.0;"/><line style="stroke: #A80036; stroke-width: 1.5;" x1="177" x2="177" y1="151.709" y2="171.709"/><polygon fill="#A80036" points="173,161.709,177,171.709,181,161.709,177,165.709" style="stroke: #A80036; stroke-width: 1.0;"/><line style="stroke: #A80036; stroke-width: 1.5;" x1="177" x2="177" y1="643.1377" y2="663.1377"/><polygon fill="#A80036" points="173,653.1377,177,663.1377,181,653.1377,177,657.1377" style="stroke: #A80036; stroke-width: 1.0;"/></g></svg>
