<?xml version="1.0" encoding="UTF-8" standalone="no"?><svg xmlns="http://www.w3.org/2000/svg" xmlns:xlink="http://www.w3.org/1999/xlink" contentScriptType="application/ecmascript" contentStyleType="text/css" height="657px" preserveAspectRatio="none" style="width:398px;height:657px;" version="1.1" viewBox="0 0 398 657" width="398px" zoomAndPan="magnify"><defs><filter height="300%" id="fv11g3ahi7ppo" width="300%" x="-1" y="-1"><feGaussianBlur result="blurOut" stdDeviation="2.0"/><feColorMatrix in="blurOut" result="blurOut2" type="matrix" values="0 0 0 0 0 0 0 0 0 0 0 0 0 0 0 0 0 0 .4 0"/><feOffset dx="4.0" dy="4.0" in="blurOut2" result="blurOut3"/><feBlend in="SourceGraphic" in2="blurOut3" mode="normal"/></filter></defs><g><rect fill="#FEFECE" filter="url(#fv11g3ahi7ppo)" height="34.1328" rx="12.5" ry="12.5" style="stroke: #A80036; stroke-width: 1.5;" width="67" x="145.5" y="10"/><text fill="#000000" font-family="sans-serif" font-size="12" lengthAdjust="spacingAndGlyphs" textLength="47" x="155.5" y="31.6016">Request</text><rect fill="#FEFECE" filter="url(#fv11g3ahi7ppo)" height="76.5313" rx="12.5" ry="12.5" style="stroke: #A80036; stroke-width: 1.5;" width="252" x="53" y="64.1328"/><text fill="#000000" font-family="sans-serif" font-size="12" lengthAdjust="spacingAndGlyphs" textLength="37" x="63" y="85.7344">Assign</text><text fill="#000000" font-family="monospace" font-size="12" lengthAdjust="spacingAndGlyphs" textLength="28" x="104" y="85.4355">beta</text><text fill="#000000" font-family="sans-serif" font-size="12" lengthAdjust="spacingAndGlyphs" textLength="4" x="132" y="85.7344">,</text><text fill="#000000" font-family="monospace" font-size="12" lengthAdjust="spacingAndGlyphs" textLength="42" x="140" y="85.4355">master</text><text fill="#000000" font-family="sans-serif" font-size="12" lengthAdjust="spacingAndGlyphs" textLength="54" x="182" y="85.7344">, or other</text><text fill="#000000" font-family="sans-serif" font-size="12" lengthAdjust="spacingAndGlyphs" textLength="134" x="63" y="99.8672">environment to request</text><text fill="#000000" font-family="sans-serif" font-size="12" lengthAdjust="spacingAndGlyphs" textLength="0" x="67" y="114"/><text fill="#000000" font-family="sans-serif" font-size="12" lengthAdjust="spacingAndGlyphs" textLength="4" x="63" y="128.1328">(</text><text fill="#000000" font-family="monospace" font-size="12" lengthAdjust="spacingAndGlyphs" textLength="224" x="67" y="127.834">assignEnvironmentToViewerRequest</text><text fill="#000000" font-family="sans-serif" font-size="12" lengthAdjust="spacingAndGlyphs" textLength="4" x="291" y="128.1328">)</text><polygon fill="#FEFECE" filter="url(#fv11g3ahi7ppo)" points="97.5,160.6641,260.5,160.6641,272.5,173.6191,260.5,186.5742,97.5,186.5742,85.5,173.6191,97.5,160.6641" style="stroke: #A80036; stroke-width: 1.5;"/><text fill="#000000" font-family="sans-serif" font-size="11" lengthAdjust="spacingAndGlyphs" textLength="103" x="97.5" y="171.2988">is response cached</text><text fill="#000000" font-family="sans-serif" font-size="11" lengthAdjust="spacingAndGlyphs" textLength="163" x="97.5" y="184.2539">for the assigned environment?</text><text fill="#000000" font-family="sans-serif" font-size="11" lengthAdjust="spacingAndGlyphs" textLength="19" x="66.5" y="171.2988">Yes</text><text fill="#000000" font-family="sans-serif" font-size="11" lengthAdjust="spacingAndGlyphs" textLength="15" x="272.5" y="171.2988">No</text><rect fill="#FEFECE" filter="url(#fv11g3ahi7ppo)" height="34.1328" rx="12.5" ry="12.5" style="stroke: #A80036; stroke-width: 1.5;" width="131" x="10" y="196.5742"/><text fill="#000000" font-family="sans-serif" font-size="12" lengthAdjust="spacingAndGlyphs" textLength="111" x="20" y="218.1758">Get cached content</text><rect fill="#FEFECE" filter="url(#fv11g3ahi7ppo)" height="90.6641" rx="12.5" ry="12.5" style="stroke: #A80036; stroke-width: 1.5;" width="168" x="198.5" y="196.5742"/><text fill="#000000" font-family="sans-serif" font-size="12" lengthAdjust="spacingAndGlyphs" textLength="122" x="208.5" y="218.1758">Determine the server</text><text fill="#000000" font-family="sans-serif" font-size="12" lengthAdjust="spacingAndGlyphs" textLength="93" x="208.5" y="232.3086">for the assigned</text><text fill="#000000" font-family="sans-serif" font-size="12" lengthAdjust="spacingAndGlyphs" textLength="71" x="208.5" y="246.4414">environment</text><text fill="#000000" font-family="sans-serif" font-size="12" lengthAdjust="spacingAndGlyphs" textLength="0" x="212.5" y="260.5742"/><text fill="#000000" font-family="sans-serif" font-size="12" lengthAdjust="spacingAndGlyphs" textLength="4" x="208.5" y="274.707">(</text><text fill="#000000" font-family="monospace" font-size="12" lengthAdjust="spacingAndGlyphs" textLength="140" x="212.5" y="274.4082">routeRequestToOrigin</text><text fill="#000000" font-family="sans-serif" font-size="12" lengthAdjust="spacingAndGlyphs" textLength="4" x="352.5" y="274.707">)</text><rect fill="#FEFECE" filter="url(#fv11g3ahi7ppo)" height="90.6641" rx="12.5" ry="12.5" style="stroke: #A80036; stroke-width: 1.5;" width="199" x="183" y="307.2383"/><text fill="#000000" font-family="sans-serif" font-size="12" lengthAdjust="spacingAndGlyphs" textLength="179" x="193" y="328.8398">Retrieve content from assigned</text><text fill="#000000" font-family="sans-serif" font-size="12" lengthAdjust="spacingAndGlyphs" textLength="71" x="193" y="342.9727">environment</text><text fill="#000000" font-family="sans-serif" font-size="12" lengthAdjust="spacingAndGlyphs" textLength="0" x="197" y="357.1055"/><text fill="#000000" font-family="monospace" font-size="12" lengthAdjust="spacingAndGlyphs" textLength="28" x="193" y="370.9395">beta</text><text fill="#000000" font-family="sans-serif" font-size="12" lengthAdjust="spacingAndGlyphs" textLength="4" x="221" y="371.2383">,</text><text fill="#000000" font-family="monospace" font-size="12" lengthAdjust="spacingAndGlyphs" textLength="42" x="229" y="370.9395">master</text><text fill="#000000" font-family="sans-serif" font-size="12" lengthAdjust="spacingAndGlyphs" textLength="78" x="271" y="371.2383">, or any other</text><text fill="#000000" font-family="sans-serif" font-size="12" lengthAdjust="spacingAndGlyphs" textLength="71" x="193" y="385.3711">environment</text><rect fill="#FEFECE" filter="url(#fv11g3ahi7ppo)" height="76.5313" rx="12.5" ry="12.5" style="stroke: #A80036; stroke-width: 1.5;" width="210" x="177.5" y="417.9023"/><text fill="#000000" font-family="sans-serif" font-size="12" lengthAdjust="spacingAndGlyphs" textLength="143" x="187.5" y="439.5039">Set headers on response</text><text fill="#000000" font-family="sans-serif" font-size="12" lengthAdjust="spacingAndGlyphs" textLength="130" x="187.5" y="453.6367">before sending it back</text><text fill="#000000" font-family="sans-serif" font-size="12" lengthAdjust="spacingAndGlyphs" textLength="0" x="191.5" y="467.7695"/><text fill="#000000" font-family="sans-serif" font-size="12" lengthAdjust="spacingAndGlyphs" textLength="4" x="187.5" y="481.9023">(</text><text fill="#000000" font-family="monospace" font-size="12" lengthAdjust="spacingAndGlyphs" textLength="182" x="191.5" y="481.6035">setHeadersOnOriginResponse</text><text fill="#000000" font-family="sans-serif" font-size="12" lengthAdjust="spacingAndGlyphs" textLength="4" x="373.5" y="481.9023">)</text><rect fill="#FEFECE" filter="url(#fv11g3ahi7ppo)" height="48.2656" rx="12.5" ry="12.5" style="stroke: #A80036; stroke-width: 1.5;" width="161" x="202" y="514.4336"/><text fill="#000000" font-family="sans-serif" font-size="12" lengthAdjust="spacingAndGlyphs" textLength="122" x="212" y="536.0352">Add content to cahce</text><text fill="#000000" font-family="sans-serif" font-size="12" lengthAdjust="spacingAndGlyphs" textLength="141" x="212" y="550.168">for subsequent requests</text><polygon fill="#FEFECE" filter="url(#fv11g3ahi7ppo)" points="179,568.6992,191,580.6992,179,592.6992,167,580.6992,179,568.6992" style="stroke: #A80036; stroke-width: 1.5;"/><rect fill="#FEFECE" filter="url(#fv11g3ahi7ppo)" height="34.1328" rx="12.5" ry="12.5" style="stroke: #A80036; stroke-width: 1.5;" width="76" x="141" y="612.6992"/><text fill="#000000" font-family="sans-serif" font-size="12" lengthAdjust="spacingAndGlyphs" textLength="56" x="151" y="634.3008">Response</text><line style="stroke: #A80036; stroke-width: 1.5;" x1="179" x2="179" y1="44.1328" y2="64.1328"/><polygon fill="#A80036" points="175,54.1328,179,64.1328,183,54.1328,179,58.1328" style="stroke: #A80036; stroke-width: 1.0;"/><line style="stroke: #A80036; stroke-width: 1.5;" x1="282.5" x2="282.5" y1="287.2383" y2="307.2383"/><polygon fill="#A80036" points="278.5,297.2383,282.5,307.2383,286.5,297.2383,282.5,301.2383" style="stroke: #A80036; stroke-width: 1.0;"/><line style="stroke: #A80036; stroke-width: 1.5;" x1="282.5" x2="282.5" y1="397.9023" y2="417.9023"/><polygon fill="#A80036" points="278.5,407.9023,282.5,417.9023,286.5,407.9023,282.5,411.9023" style="stroke: #A80036; stroke-width: 1.0;"/><line style="stroke: #A80036; stroke-width: 1.5;" x1="282.5" x2="282.5" y1="494.4336" y2="514.4336"/><polygon fill="#A80036" points="278.5,504.4336,282.5,514.4336,286.5,504.4336,282.5,508.4336" style="stroke: #A80036; stroke-width: 1.0;"/><line style="stroke: #A80036; stroke-width: 1.5;" x1="85.5" x2="75.5" y1="173.6191" y2="173.6191"/><line style="stroke: #A80036; stroke-width: 1.5;" x1="75.5" x2="75.5" y1="173.6191" y2="196.5742"/><polygon fill="#A80036" points="71.5,186.5742,75.5,196.5742,79.5,186.5742,75.5,190.5742" style="stroke: #A80036; stroke-width: 1.0;"/><line style="stroke: #A80036; stroke-width: 1.5;" x1="272.5" x2="282.5" y1="173.6191" y2="173.6191"/><line style="stroke: #A80036; stroke-width: 1.5;" x1="282.5" x2="282.5" y1="173.6191" y2="196.5742"/><polygon fill="#A80036" points="278.5,186.5742,282.5,196.5742,286.5,186.5742,282.5,190.5742" style="stroke: #A80036; stroke-width: 1.0;"/><line style="stroke: #A80036; stroke-width: 1.5;" x1="75.5" x2="75.5" y1="230.707" y2="580.6992"/><line style="stroke: #A80036; stroke-width: 1.5;" x1="75.5" x2="167" y1="580.6992" y2="580.6992"/><polygon fill="#A80036" points="157,576.6992,167,580.6992,157,584.6992,161,580.6992" style="stroke: #A80036; stroke-width: 1.0;"/><line style="stroke: #A80036; stroke-width: 1.5;" x1="282.5" x2="282.5" y1="562.6992" y2="580.6992"/><line style="stroke: #A80036; stroke-width: 1.5;" x1="282.5" x2="191" y1="580.6992" y2="580.6992"/><polygon fill="#A80036" points="201,576.6992,191,580.6992,201,584.6992,197,580.6992" style="stroke: #A80036; stroke-width: 1.0;"/><line style="stroke: #A80036; stroke-width: 1.5;" x1="179" x2="179" y1="140.6641" y2="160.6641"/><polygon fill="#A80036" points="175,150.6641,179,160.6641,183,150.6641,179,154.6641" style="stroke: #A80036; stroke-width: 1.0;"/><line style="stroke: #A80036; stroke-width: 1.5;" x1="179" x2="179" y1="592.6992" y2="612.6992"/><polygon fill="#A80036" points="175,602.6992,179,612.6992,183,602.6992,179,606.6992" style="stroke: #A80036; stroke-width: 1.0;"/></g></svg>
