<?xml version="1.0" encoding="UTF-8" standalone="no"?><svg xmlns="http://www.w3.org/2000/svg" xmlns:xlink="http://www.w3.org/1999/xlink" contentScriptType="application/ecmascript" contentStyleType="text/css" height="281px" preserveAspectRatio="none" style="width:308px;height:281px;" version="1.1" viewBox="0 0 308 281" width="308px" zoomAndPan="magnify"><defs><filter height="300%" id="ffkgu21b0vy8m" width="300%" x="-1" y="-1"><feGaussianBlur result="blurOut" stdDeviation="2.0"/><feColorMatrix in="blurOut" result="blurOut2" type="matrix" values="0 0 0 0 0 0 0 0 0 0 0 0 0 0 0 0 0 0 .4 0"/><feOffset dx="4.0" dy="4.0" in="blurOut2" result="blurOut3"/><feBlend in="SourceGraphic" in2="blurOut3" mode="normal"/></filter></defs><g><rect fill="#FEFECE" filter="url(#ffkgu21b0vy8m)" height="34.1328" rx="12.5" ry="12.5" style="stroke: #A80036; stroke-width: 1.5;" width="67" x="115" y="10"/><text fill="#000000" font-family="sans-serif" font-size="12" lengthAdjust="spacingAndGlyphs" textLength="47" x="125" y="31.6016">Request</text><rect fill="#FEFECE" filter="url(#ffkgu21b0vy8m)" height="34.1328" rx="12.5" ry="12.5" style="stroke: #A80036; stroke-width: 1.5;" width="91" x="103" y="64.1328"/><text fill="#000000" font-family="sans-serif" font-size="12" lengthAdjust="spacingAndGlyphs" textLength="71" x="113" y="85.7344">API Gateway</text><polygon fill="#FEFECE" filter="url(#ffkgu21b0vy8m)" points="93,118.2656,204,118.2656,216,130.2656,204,142.2656,93,142.2656,81,130.2656,93,118.2656" style="stroke: #A80036; stroke-width: 1.5;"/><text fill="#000000" font-family="sans-serif" font-size="11" lengthAdjust="spacingAndGlyphs" textLength="111" x="93" y="134.4229">What's the URL path?</text><text fill="#000000" font-family="sans-serif" font-size="11" lengthAdjust="spacingAndGlyphs" textLength="23" x="58" y="127.9453">/log</text><text fill="#000000" font-family="sans-serif" font-size="11" lengthAdjust="spacingAndGlyphs" textLength="80" x="216" y="127.9453">Any other path</text><rect fill="#FEFECE" filter="url(#ffkgu21b0vy8m)" height="34.1328" rx="12.5" ry="12.5" style="stroke: #A80036; stroke-width: 1.5;" width="122" x="10" y="152.2656"/><text fill="#000000" font-family="sans-serif" font-size="12" lengthAdjust="spacingAndGlyphs" textLength="102" x="20" y="173.8672">serveLogEndpoint</text><rect fill="#FEFECE" filter="url(#ffkgu21b0vy8m)" height="34.1328" rx="12.5" ry="12.5" style="stroke: #A80036; stroke-width: 1.5;" width="85" x="183.5" y="152.2656"/><text fill="#000000" font-family="sans-serif" font-size="12" lengthAdjust="spacingAndGlyphs" textLength="65" x="193.5" y="173.8672">servePages</text><polygon fill="#FEFECE" filter="url(#ffkgu21b0vy8m)" points="148.5,192.3984,160.5,204.3984,148.5,216.3984,136.5,204.3984,148.5,192.3984" style="stroke: #A80036; stroke-width: 1.5;"/><rect fill="#FEFECE" filter="url(#ffkgu21b0vy8m)" height="34.1328" rx="12.5" ry="12.5" style="stroke: #A80036; stroke-width: 1.5;" width="76" x="110.5" y="236.3984"/><text fill="#000000" font-family="sans-serif" font-size="12" lengthAdjust="spacingAndGlyphs" textLength="56" x="120.5" y="258">Response</text><line style="stroke: #A80036; stroke-width: 1.5;" x1="148.5" x2="148.5" y1="44.1328" y2="64.1328"/><polygon fill="#A80036" points="144.5,54.1328,148.5,64.1328,152.5,54.1328,148.5,58.1328" style="stroke: #A80036; stroke-width: 1.0;"/><line style="stroke: #A80036; stroke-width: 1.5;" x1="81" x2="71" y1="130.2656" y2="130.2656"/><line style="stroke: #A80036; stroke-width: 1.5;" x1="71" x2="71" y1="130.2656" y2="152.2656"/><polygon fill="#A80036" points="67,142.2656,71,152.2656,75,142.2656,71,146.2656" style="stroke: #A80036; stroke-width: 1.0;"/><line style="stroke: #A80036; stroke-width: 1.5;" x1="216" x2="226" y1="130.2656" y2="130.2656"/><line style="stroke: #A80036; stroke-width: 1.5;" x1="226" x2="226" y1="130.2656" y2="152.2656"/><polygon fill="#A80036" points="222,142.2656,226,152.2656,230,142.2656,226,146.2656" style="stroke: #A80036; stroke-width: 1.0;"/><line style="stroke: #A80036; stroke-width: 1.5;" x1="71" x2="71" y1="186.3984" y2="204.3984"/><line style="stroke: #A80036; stroke-width: 1.5;" x1="71" x2="136.5" y1="204.3984" y2="204.3984"/><polygon fill="#A80036" points="126.5,200.3984,136.5,204.3984,126.5,208.3984,130.5,204.3984" style="stroke: #A80036; stroke-width: 1.0;"/><line style="stroke: #A80036; stroke-width: 1.5;" x1="226" x2="226" y1="186.3984" y2="204.3984"/><line style="stroke: #A80036; stroke-width: 1.5;" x1="226" x2="160.5" y1="204.3984" y2="204.3984"/><polygon fill="#A80036" points="170.5,200.3984,160.5,204.3984,170.5,208.3984,166.5,204.3984" style="stroke: #A80036; stroke-width: 1.0;"/><line style="stroke: #A80036; stroke-width: 1.5;" x1="148.5" x2="148.5" y1="98.2656" y2="118.2656"/><polygon fill="#A80036" points="144.5,108.2656,148.5,118.2656,152.5,108.2656,148.5,112.2656" style="stroke: #A80036; stroke-width: 1.0;"/><line style="stroke: #A80036; stroke-width: 1.5;" x1="148.5" x2="148.5" y1="216.3984" y2="236.3984"/><polygon fill="#A80036" points="144.5,226.3984,148.5,236.3984,152.5,226.3984,148.5,230.3984" style="stroke: #A80036; stroke-width: 1.0;"/></g></svg>
