<?xml version="1.0" encoding="UTF-8" standalone="no"?><svg xmlns="http://www.w3.org/2000/svg" xmlns:xlink="http://www.w3.org/1999/xlink" contentScriptType="application/ecmascript" contentStyleType="text/css" height="290px" preserveAspectRatio="none" style="width:308px;height:290px;" version="1.1" viewBox="0 0 308 290" width="308px" zoomAndPan="magnify"><defs><filter height="300%" id="ffkgu21b0vy8m" width="300%" x="-1" y="-1"><feGaussianBlur result="blurOut" stdDeviation="2.0"/><feColorMatrix in="blurOut" result="blurOut2" type="matrix" values="0 0 0 0 0 0 0 0 0 0 0 0 0 0 0 0 0 0 .4 0"/><feOffset dx="4.0" dy="4.0" in="blurOut2" result="blurOut3"/><feBlend in="SourceGraphic" in2="blurOut3" mode="normal"/></filter></defs><g><rect fill="#FEFECE" filter="url(#ffkgu21b0vy8m)" height="36.3418" rx="12.5" ry="12.5" style="stroke: #A80036; stroke-width: 1.5;" width="65" x="116" y="10"/><text fill="#000000" font-family="sans-serif" font-size="12" lengthAdjust="spacingAndGlyphs" textLength="45" x="126" y="32.8262">Request</text><rect fill="#FEFECE" filter="url(#ffkgu21b0vy8m)" height="36.3418" rx="12.5" ry="12.5" style="stroke: #A80036; stroke-width: 1.5;" width="91" x="103" y="66.3418"/><text fill="#000000" font-family="sans-serif" font-size="12" lengthAdjust="spacingAndGlyphs" textLength="71" x="113" y="89.168">API Gateway</text><polygon fill="#FEFECE" filter="url(#ffkgu21b0vy8m)" points="92,122.6836,205,122.6836,217,134.6836,205,146.6836,92,146.6836,80,134.6836,92,122.6836" style="stroke: #A80036; stroke-width: 1.5;"/><text fill="#000000" font-family="sans-serif" font-size="11" lengthAdjust="spacingAndGlyphs" textLength="113" x="92" y="138.9509">What's the URL path?</text><text fill="#000000" font-family="sans-serif" font-size="11" lengthAdjust="spacingAndGlyphs" textLength="22" x="58" y="131.4609">/log</text><text fill="#000000" font-family="sans-serif" font-size="11" lengthAdjust="spacingAndGlyphs" textLength="79" x="217" y="131.4609">Any other path</text><rect fill="#FEFECE" filter="url(#ffkgu21b0vy8m)" height="36.3418" rx="12.5" ry="12.5" style="stroke: #A80036; stroke-width: 1.5;" width="120" x="10" y="156.6836"/><text fill="#000000" font-family="sans-serif" font-size="12" lengthAdjust="spacingAndGlyphs" textLength="100" x="20" y="179.5098">serveLogEndpoint</text><rect fill="#FEFECE" filter="url(#ffkgu21b0vy8m)" height="36.3418" rx="12.5" ry="12.5" style="stroke: #A80036; stroke-width: 1.5;" width="85" x="184.5" y="156.6836"/><text fill="#000000" font-family="sans-serif" font-size="12" lengthAdjust="spacingAndGlyphs" textLength="65" x="194.5" y="179.5098">servePages</text><polygon fill="#FEFECE" filter="url(#ffkgu21b0vy8m)" points="148.5,199.0254,160.5,211.0254,148.5,223.0254,136.5,211.0254,148.5,199.0254" style="stroke: #A80036; stroke-width: 1.5;"/><rect fill="#FEFECE" filter="url(#ffkgu21b0vy8m)" height="36.3418" rx="12.5" ry="12.5" style="stroke: #A80036; stroke-width: 1.5;" width="74" x="111.5" y="243.0254"/><text fill="#000000" font-family="sans-serif" font-size="12" lengthAdjust="spacingAndGlyphs" textLength="54" x="121.5" y="265.8516">Response</text><line style="stroke: #A80036; stroke-width: 1.5;" x1="148.5" x2="148.5" y1="46.3418" y2="66.3418"/><polygon fill="#A80036" points="144.5,56.3418,148.5,66.3418,152.5,56.3418,148.5,60.3418" style="stroke: #A80036; stroke-width: 1.0;"/><line style="stroke: #A80036; stroke-width: 1.5;" x1="80" x2="70" y1="134.6836" y2="134.6836"/><line style="stroke: #A80036; stroke-width: 1.5;" x1="70" x2="70" y1="134.6836" y2="156.6836"/><polygon fill="#A80036" points="66,146.6836,70,156.6836,74,146.6836,70,150.6836" style="stroke: #A80036; stroke-width: 1.0;"/><line style="stroke: #A80036; stroke-width: 1.5;" x1="217" x2="227" y1="134.6836" y2="134.6836"/><line style="stroke: #A80036; stroke-width: 1.5;" x1="227" x2="227" y1="134.6836" y2="156.6836"/><polygon fill="#A80036" points="223,146.6836,227,156.6836,231,146.6836,227,150.6836" style="stroke: #A80036; stroke-width: 1.0;"/><line style="stroke: #A80036; stroke-width: 1.5;" x1="70" x2="70" y1="193.0254" y2="211.0254"/><line style="stroke: #A80036; stroke-width: 1.5;" x1="70" x2="136.5" y1="211.0254" y2="211.0254"/><polygon fill="#A80036" points="126.5,207.0254,136.5,211.0254,126.5,215.0254,130.5,211.0254" style="stroke: #A80036; stroke-width: 1.0;"/><line style="stroke: #A80036; stroke-width: 1.5;" x1="227" x2="227" y1="193.0254" y2="211.0254"/><line style="stroke: #A80036; stroke-width: 1.5;" x1="227" x2="160.5" y1="211.0254" y2="211.0254"/><polygon fill="#A80036" points="170.5,207.0254,160.5,211.0254,170.5,215.0254,166.5,211.0254" style="stroke: #A80036; stroke-width: 1.0;"/><line style="stroke: #A80036; stroke-width: 1.5;" x1="148.5" x2="148.5" y1="102.6836" y2="122.6836"/><polygon fill="#A80036" points="144.5,112.6836,148.5,122.6836,152.5,112.6836,148.5,116.6836" style="stroke: #A80036; stroke-width: 1.0;"/><line style="stroke: #A80036; stroke-width: 1.5;" x1="148.5" x2="148.5" y1="223.0254" y2="243.0254"/><polygon fill="#A80036" points="144.5,233.0254,148.5,243.0254,152.5,233.0254,148.5,237.0254" style="stroke: #A80036; stroke-width: 1.0;"/></g></svg>
